<?xml version="1.0" encoding="UTF-8"?><svg id="Layer_1" xmlns="http://www.w3.org/2000/svg" viewBox="0 0 1800 1200"><defs><style>.cls-1{fill:#819b84;}.cls-2{fill:#dbe8e1;font-family:Inter-Black, Inter;font-size:36.89px;font-variation-settings:'opsz' 14, 'wght' 900;font-weight:800;}.cls-3{letter-spacing:0em;}.cls-4{letter-spacing:-.06em;}.cls-5{letter-spacing:-.02em;}.cls-6{letter-spacing:-.02em;}.cls-7{letter-spacing:-.02em;}.cls-8{letter-spacing:-.01em;}.cls-9{letter-spacing:-.05em;}.cls-10{letter-spacing:-.04em;}.cls-11{letter-spacing:-.03em;}.cls-12{letter-spacing:-.03em;}.cls-13{letter-spacing:0em;}.cls-14{letter-spacing:.02em;}.cls-15{letter-spacing:0em;}.cls-16{letter-spacing:.01em;}.cls-17{letter-spacing:0em;}</style></defs><path class="cls-1" d="M794.9,434.14c.18-3.22,2.93-5.68,6.15-5.51,3.22.18,5.68,2.93,5.51,6.15-.18,3.22-2.93,5.68-6.15,5.51-3.22-.18-5.68-2.93-5.51-6.15Z"/><path class="cls-1" d="M781.43,434.5c-.11-2.91,2.17-5.36,5.08-5.47,2.91-.11,5.36,2.17,5.47,5.08.11,2.91-2.17,5.36-5.08,5.47-2.91.11-5.36-2.17-5.47-5.08Z"/><path class="cls-1" d="M767.98,436.06c-.34-2.61,1.5-5.01,4.12-5.35,2.61-.34,5.01,1.5,5.35,4.12.34,2.61-1.5,5.01-4.12,5.35s-5.01-1.5-5.35-4.12Z"/><path class="cls-1" d="M754.67,438.8c-.52-2.32.94-4.62,3.26-5.14,2.32-.52,4.62.94,5.14,3.26.52,2.32-.94,4.62-3.26,5.14-2.32.52-4.62-.94-5.14-3.26Z"/><path class="cls-1" d="M741.62,442.72c-.65-2.04.47-4.23,2.51-4.88,2.04-.65,4.23.47,4.88,2.51.66,2.04-.47,4.23-2.51,4.88-2.04.65-4.23-.47-4.88-2.51Z"/><path class="cls-1" d="M728.96,447.81c-.76-1.78.07-3.83,1.84-4.59,1.77-.76,3.83.07,4.59,1.84.76,1.78-.07,3.83-1.84,4.59-1.78.76-3.83-.07-4.59-1.84Z"/><path class="cls-1" d="M716.81,454c-.83-1.53-.26-3.44,1.27-4.26,1.53-.83,3.44-.26,4.26,1.27.83,1.53.26,3.44-1.27,4.26-1.53.83-3.44.26-4.26-1.27Z"/><path class="cls-1" d="M705.26,461.25c-.86-1.3-.51-3.06.8-3.93,1.3-.86,3.06-.51,3.93.8.87,1.3.51,3.06-.8,3.93-1.3.86-3.06.51-3.93-.8Z"/><path class="cls-1" d="M694.42,469.54c-.89-1.1-.72-2.71.38-3.59,1.1-.89,2.71-.72,3.59.38.89,1.1.72,2.71-.38,3.59-1.1.89-2.71.72-3.59-.38Z"/><path class="cls-1" d="M684.33,478.82c-.89-.91-.88-2.38.03-3.27.91-.89,2.38-.88,3.27.03.89.91.88,2.38-.03,3.27-.91.89-2.38.88-3.27-.03Z"/><path class="cls-1" d="M675.06,489.02c-.88-.75-.99-2.08-.23-2.96.75-.88,2.08-.99,2.96-.23.88.75.99,2.08.23,2.96-.75.88-2.08.99-2.96.23Z"/><path class="cls-1" d="M666.68,500.15c-.86-.61-1.07-1.8-.46-2.66s1.8-1.07,2.66-.46c.86.61,1.07,1.8.46,2.66-.61.86-1.8,1.07-2.66.46Z"/><path class="cls-1" d="M659.3,511.96c-.82-.47-1.1-1.52-.62-2.34.47-.82,1.52-1.1,2.34-.62.82.47,1.1,1.52.62,2.34-.47.82-1.52,1.1-2.34.62Z"/><path class="cls-1" d="M653.09,524.31c-.77-.35-1.11-1.26-.76-2.03.35-.77,1.26-1.11,2.03-.76.77.35,1.11,1.26.76,2.03-.35.77-1.26,1.11-2.03.76Z"/><path class="cls-1" d="M648.04,537.14c-.72-.25-1.1-1.04-.84-1.76.25-.72,1.04-1.1,1.76-.84.72.25,1.1,1.04.84,1.76-.25.72-1.04,1.1-1.76.84Z"/><path class="cls-1" d="M644.17,550.38c-.67-.17-1.07-.85-.9-1.52.17-.67.85-1.07,1.52-.9.67.17,1.07.85.9,1.52-.17.67-.85,1.07-1.52.9Z"/><path class="cls-1" d="M641.54,563.96c-.62-.09-1.04-.67-.94-1.29.09-.62.67-1.04,1.29-.94.62.09,1.04.67.94,1.29-.09.62-.67,1.04-1.29.94Z"/><path class="cls-1" d="M640.16,577.78c-.56-.03-.99-.51-.97-1.07.03-.56.51-.99,1.07-.97.56.03,1,.51.97,1.07-.03.56-.51.99-1.07.97Z"/><path class="cls-1" d="M819.83,436.64c-.43,2.87-3.1,4.85-5.97,4.42-2.87-.43-4.85-3.1-4.42-5.97.43-2.87,3.1-4.85,5.97-4.42,2.87.43,4.85,3.1,4.42,5.97Z"/><path class="cls-1" d="M832.92,439.66c-.62,2.54-3.18,4.09-5.72,3.47-2.54-.62-4.09-3.19-3.47-5.72.62-2.54,3.18-4.09,5.72-3.47,2.54.62,4.09,3.18,3.47,5.72Z"/><path class="cls-1" d="M845.72,443.84c-.77,2.23-3.2,3.41-5.42,2.65-2.23-.77-3.41-3.2-2.65-5.42.77-2.23,3.2-3.41,5.42-2.65,2.23.77,3.41,3.2,2.65,5.42Z"/><path class="cls-1" d="M858.15,449.21c-.88,1.94-3.17,2.8-5.11,1.92-1.94-.88-2.8-3.17-1.92-5.11.88-1.94,3.17-2.8,5.11-1.92,1.94.88,2.8,3.17,1.92,5.11Z"/><path class="cls-1" d="M870.15,455.69c-.96,1.68-3.1,2.27-4.78,1.32-1.68-.96-2.27-3.1-1.32-4.78.96-1.68,3.09-2.27,4.78-1.32,1.68.96,2.27,3.1,1.32,4.78Z"/><path class="cls-1" d="M881.64,463.33c-1.02,1.44-3.01,1.79-4.45.77-1.44-1.02-1.79-3.01-.77-4.45,1.02-1.44,3.01-1.78,4.45-.77,1.44,1.02,1.79,3.01.77,4.45Z"/><path class="cls-1" d="M892.43,471.92c-1.02,1.2-2.82,1.36-4.03.34-1.21-1.02-1.36-2.82-.34-4.03,1.02-1.21,2.82-1.36,4.03-.34,1.2,1.02,1.35,2.82.34,4.03Z"/><path class="cls-1" d="M902.34,481.4c-1.01.99-2.63.99-3.62-.02-1-1.01-.99-2.63.02-3.62,1.01-1,2.63-.99,3.62.02,1,1.01.99,2.63-.02,3.62Z"/><path class="cls-1" d="M911.32,491.73c-.99.81-2.44.66-3.24-.32-.81-.99-.66-2.44.32-3.25.99-.81,2.44-.66,3.24.32.81.99.66,2.44-.32,3.25Z"/><path class="cls-1" d="M919.34,502.85c-.95.64-2.25.39-2.89-.57-.64-.95-.39-2.25.57-2.89.95-.64,2.25-.39,2.89.57.64.95.39,2.25-.57,2.89Z"/><path class="cls-1" d="M926.34,514.68c-.91.5-2.06.16-2.56-.75-.5-.91-.16-2.06.75-2.56.91-.5,2.06-.16,2.55.75.5.91.16,2.06-.75,2.56Z"/><path class="cls-1" d="M932.25,527.16c-.86.37-1.87-.02-2.24-.89-.37-.86.02-1.87.89-2.24.86-.37,1.87.02,2.24.89.37.86-.02,1.87-.89,2.24Z"/><path class="cls-1" d="M937.03,540.16c-.81.27-1.68-.17-1.95-.98-.27-.81.17-1.68.98-1.95.81-.27,1.68.17,1.95.98.27.81-.17,1.68-.98,1.95Z"/><path class="cls-1" d="M940.63,553.59c-.75.17-1.5-.29-1.67-1.04s.29-1.5,1.04-1.67c.75-.17,1.5.29,1.67,1.04.17.75-.29,1.5-1.04,1.67Z"/><path class="cls-1" d="M943,567.31c-.69.1-1.32-.38-1.42-1.07-.1-.69.38-1.32,1.07-1.42.69-.1,1.32.38,1.42,1.07.1.69-.38,1.32-1.07,1.42Z"/><path class="cls-1" d="M944.12,581.2c-.62.03-1.16-.45-1.19-1.07-.03-.63.45-1.16,1.07-1.19.63-.03,1.16.45,1.19,1.07.03.63-.45,1.16-1.07,1.19Z"/><path class="cls-1" d="M943.97,595.11c-.56-.02-1-.49-.98-1.06.02-.56.49-1,1.06-.98.56.02,1.01.49.99,1.06-.02.56-.49,1-1.06.98Z"/><path class="cls-1" d="M696.69,406.87c-1.87-3.87-.25-8.53,3.63-10.4,3.87-1.87,8.53-.25,10.4,3.63,1.87,3.87.25,8.53-3.63,10.4-3.87,1.87-8.53.25-10.4-3.63Z"/><path class="cls-1" d="M681.25,415.96c-2-3.32-.93-7.64,2.39-9.64,3.32-2,7.64-.93,9.64,2.39,2,3.32.93,7.64-2.39,9.64-3.32,2-7.64.93-9.64-2.39Z"/><path class="cls-1" d="M666.64,426.43c-2.08-2.82-1.48-6.78,1.34-8.86,2.82-2.08,6.78-1.48,8.86,1.34,2.08,2.82,1.48,6.78-1.34,8.86-2.82,2.08-6.78,1.48-8.86-1.34Z"/><path class="cls-1" d="M652.95,438.19c-2.1-2.36-1.88-5.98.48-8.07,2.36-2.1,5.98-1.88,8.07.48,2.1,2.36,1.88,5.98-.48,8.07-2.36,2.1-5.98,1.88-8.07-.48Z"/><path class="cls-1" d="M640.34,451.21c-2.09-1.95-2.2-5.22-.25-7.31,1.95-2.09,5.22-2.2,7.31-.25,2.09,1.95,2.2,5.22.25,7.31-1.95,2.09-5.22,2.2-7.31.25Z"/><path class="cls-1" d="M628.85,465.37c-2.04-1.59-2.41-4.53-.82-6.57,1.59-2.04,4.53-2.41,6.57-.82,2.04,1.59,2.41,4.53.82,6.57-1.59,2.04-4.53,2.41-6.57.82Z"/><path class="cls-1" d="M618.62,480.57c-1.97-1.25-2.55-3.86-1.29-5.83,1.25-1.97,3.86-2.55,5.83-1.3,1.97,1.25,2.55,3.86,1.3,5.83-1.25,1.97-3.86,2.55-5.83,1.3Z"/><path class="cls-1" d="M609.78,496.59c-1.86-.97-2.59-3.26-1.62-5.12.97-1.86,3.26-2.59,5.12-1.62,1.86.97,2.59,3.26,1.62,5.12-.97,1.86-3.26,2.59-5.12,1.62Z"/><path class="cls-1" d="M602.43,513.35c-1.75-.71-2.6-2.71-1.88-4.46.71-1.75,2.71-2.6,4.46-1.88,1.75.71,2.6,2.71,1.88,4.46-.71,1.75-2.71,2.6-4.46,1.88Z"/><path class="cls-1" d="M596.63,530.74c-1.63-.49-2.56-2.21-2.07-3.85.49-1.63,2.21-2.56,3.85-2.07,1.63.49,2.56,2.21,2.07,3.85-.49,1.63-2.21,2.56-3.85,2.07Z"/><path class="cls-1" d="M592.42,548.61c-1.51-.3-2.49-1.77-2.19-3.28.3-1.51,1.77-2.49,3.28-2.19,1.51.3,2.49,1.77,2.19,3.28-.3,1.51-1.77,2.49-3.28,2.19Z"/><path class="cls-1" d="M589.84,566.84c-1.38-.15-2.39-1.39-2.24-2.78.15-1.38,1.39-2.39,2.78-2.24,1.38.15,2.38,1.39,2.24,2.78-.15,1.38-1.39,2.38-2.77,2.24Z"/><path class="cls-1" d="M588.95,585.28c-1.26-.02-2.26-1.05-2.24-2.31.02-1.26,1.05-2.26,2.31-2.24,1.26.02,2.26,1.05,2.24,2.31-.02,1.26-1.05,2.26-2.31,2.24Z"/><path class="cls-1" d="M589.72,603.76c-1.13.09-2.12-.76-2.21-1.89-.09-1.13.76-2.12,1.89-2.21,1.13-.09,2.12.76,2.21,1.89.09,1.13-.76,2.12-1.89,2.21Z"/><path class="cls-1" d="M592.16,622.12c-1.01.17-1.97-.51-2.14-1.52-.17-1.01.51-1.97,1.52-2.14,1.01-.17,1.97.51,2.14,1.52.17,1.01-.51,1.97-1.52,2.14Z"/><path class="cls-1" d="M596.24,640.21c-.89.23-1.81-.3-2.05-1.2-.23-.89.3-1.81,1.2-2.05.89-.23,1.81.3,2.04,1.2.23.9-.3,1.81-1.2,2.05Z"/><path class="cls-1" d="M601.97,657.85c-.78.29-1.65-.12-1.94-.9-.29-.78.12-1.65.9-1.94.78-.29,1.65.12,1.94.9.29.78-.12,1.65-.9,1.94Z"/><path class="cls-1" d="M609.28,674.91c-.68.32-1.49.04-1.82-.64-.33-.68-.04-1.49.64-1.82.68-.33,1.49-.04,1.82.64.33.68.04,1.49-.64,1.82Z"/><path class="cls-1" d="M727.48,393.68c1.36,3.64-.49,7.69-4.14,9.05-3.64,1.36-7.69-.49-9.05-4.13-1.36-3.64.49-7.69,4.14-9.05,3.64-1.36,7.69.49,9.05,4.13Z"/><path class="cls-1" d="M744.82,388.72c.92,3.39-1.08,6.88-4.47,7.8-3.39.92-6.88-1.08-7.8-4.47-.92-3.39,1.08-6.88,4.47-7.8,3.39-.92,6.88,1.08,7.8,4.47Z"/><path class="cls-1" d="M762.6,385.29c.55,3.12-1.53,6.1-4.65,6.65-3.12.55-6.1-1.53-6.65-4.65-.55-3.12,1.53-6.1,4.65-6.65,3.12-.55,6.1,1.53,6.65,4.65Z"/><path class="cls-1" d="M780.67,383.46c.24,2.85-1.88,5.35-4.73,5.59-2.85.24-5.35-1.88-5.59-4.73-.24-2.85,1.88-5.35,4.73-5.59,2.85-.24,5.35,1.88,5.59,4.73Z"/><path class="cls-1" d="M798.88,383.24c-.02,2.58-2.13,4.65-4.71,4.62-2.58-.02-4.65-2.13-4.62-4.71.02-2.58,2.13-4.65,4.71-4.62,2.58.02,4.65,2.13,4.62,4.71Z"/><path class="cls-1" d="M817.06,384.64c-.23,2.31-2.3,4-4.61,3.76-2.31-.23-4-2.3-3.76-4.61.23-2.31,2.3-4,4.61-3.76,2.31.23,4,2.3,3.76,4.61Z"/><path class="cls-1" d="M835.08,387.68c-.4,2.06-2.39,3.4-4.45,3-2.06-.4-3.4-2.39-3-4.45.4-2.06,2.39-3.4,4.45-3,2.06.4,3.4,2.39,3,4.45Z"/><path class="cls-1" d="M852.76,392.36c-.53,1.81-2.44,2.85-4.25,2.31-1.81-.53-2.85-2.44-2.31-4.25.54-1.81,2.44-2.85,4.25-2.31,1.81.54,2.85,2.44,2.31,4.25Z"/><path class="cls-1" d="M869.98,398.63c-.63,1.58-2.43,2.35-4.02,1.72-1.58-.63-2.35-2.43-1.72-4.02.63-1.58,2.43-2.35,4.02-1.72,1.58.64,2.35,2.43,1.72,4.02Z"/><path class="cls-1" d="M886.62,406.46c-.7,1.37-2.38,1.92-3.76,1.22-1.37-.7-1.92-2.38-1.22-3.76.7-1.37,2.38-1.92,3.76-1.22,1.37.7,1.92,2.38,1.22,3.76Z"/><path class="cls-1" d="M902.52,415.81c-.75,1.18-2.31,1.53-3.49.79-1.18-.75-1.53-2.31-.79-3.49.75-1.18,2.31-1.53,3.49-.79,1.18.75,1.53,2.31.79,3.49Z"/><path class="cls-1" d="M917.59,426.6c-.77,1-2.2,1.18-3.2.41-1-.77-1.18-2.21-.41-3.2.77-1,2.2-1.18,3.2-.41,1,.77,1.18,2.21.41,3.2Z"/><path class="cls-1" d="M931.62,438.65c-.77.83-2.07.88-2.9.12-.83-.77-.88-2.07-.12-2.9.77-.83,2.07-.88,2.9-.11.83.77.89,2.07.12,2.9Z"/><path class="cls-1" d="M944.48,451.92c-.76.69-1.93.63-2.61-.13-.69-.76-.63-1.93.12-2.61.76-.69,1.93-.63,2.61.12.69.76.63,1.93-.12,2.61Z"/><path class="cls-1" d="M956.07,466.31c-.73.56-1.78.41-2.34-.32-.56-.73-.41-1.78.32-2.34.73-.56,1.78-.41,2.34.32.56.73.41,1.78-.32,2.34Z"/><path class="cls-1" d="M966.29,481.74c-.71.44-1.64.22-2.07-.49-.44-.71-.22-1.64.49-2.07.71-.44,1.64-.22,2.07.49.44.71.22,1.64-.49,2.07Z"/><path class="cls-1" d="M975.07,498.06c-.67.33-1.49.05-1.82-.62-.33-.67-.05-1.49.62-1.82.68-.33,1.49-.05,1.82.62.33.67.05,1.49-.62,1.82Z"/><path class="cls-1" d="M578.96,447.88c-4.4-3.1-5.45-9.18-2.35-13.58,3.1-4.4,9.18-5.45,13.58-2.35,4.4,3.1,5.45,9.18,2.35,13.58-3.1,4.4-9.18,5.45-13.58,2.35Z"/><path class="cls-1" d="M567.55,467.2c-4.21-2.43-5.65-7.81-3.22-12.02,2.43-4.21,7.81-5.65,12.02-3.22,4.21,2.43,5.65,7.81,3.21,12.02-2.43,4.21-7.81,5.65-12.02,3.22Z"/><path class="cls-1" d="M557.87,487.55c-3.99-1.83-5.74-6.54-3.91-10.53,1.83-3.99,6.54-5.74,10.53-3.91,3.99,1.83,5.74,6.54,3.91,10.53-1.83,3.99-6.54,5.74-10.53,3.91Z"/><path class="cls-1" d="M550,508.76c-3.73-1.32-5.69-5.41-4.38-9.14,1.32-3.73,5.41-5.69,9.14-4.38,3.73,1.32,5.69,5.41,4.38,9.14-1.32,3.73-5.41,5.69-9.14,4.38Z"/><path class="cls-1" d="M544.06,530.66c-3.47-.87-5.57-4.38-4.7-7.85.87-3.46,4.38-5.57,7.85-4.7,3.46.87,5.57,4.38,4.7,7.85-.87,3.46-4.38,5.57-7.85,4.7Z"/><path class="cls-1" d="M540.1,553.07c-3.19-.49-5.37-3.47-4.88-6.66.49-3.19,3.47-5.37,6.66-4.88,3.19.49,5.37,3.47,4.88,6.66-.49,3.19-3.47,5.37-6.66,4.88Z"/><path class="cls-1" d="M538.15,575.81c-2.9-.18-5.11-2.68-4.93-5.58.18-2.9,2.68-5.11,5.58-4.93,2.9.18,5.11,2.68,4.93,5.58-.18,2.9-2.68,5.11-5.58,4.93Z"/><path class="cls-1" d="M538.26,598.69c-2.62.08-4.82-1.98-4.89-4.61-.08-2.62,1.99-4.82,4.61-4.89,2.63-.08,4.82,1.99,4.89,4.61.08,2.63-1.99,4.82-4.61,4.89Z"/><path class="cls-1" d="M540.43,621.52c-2.35.29-4.49-1.38-4.78-3.73-.29-2.35,1.38-4.49,3.73-4.78,2.35-.29,4.49,1.38,4.78,3.73.29,2.35-1.38,4.49-3.73,4.78Z"/><path class="cls-1" d="M544.64,644.1c-2.09.46-4.15-.87-4.61-2.96-.46-2.09.87-4.15,2.96-4.61,2.09-.46,4.15.87,4.61,2.96.46,2.09-.87,4.15-2.96,4.61Z"/><path class="cls-1" d="M550.88,666.26c-1.84.58-3.8-.44-4.39-2.28-.58-1.84.44-3.8,2.28-4.39,1.84-.58,3.8.44,4.39,2.28.58,1.84-.44,3.8-2.28,4.39Z"/><path class="cls-1" d="M559.09,687.8c-1.61.67-3.45-.08-4.13-1.69-.67-1.61.08-3.45,1.69-4.13,1.61-.67,3.46.08,4.13,1.69.67,1.61-.08,3.46-1.69,4.13Z"/><path class="cls-1" d="M569.26,708.52c-1.39.74-3.11.22-3.85-1.17-.74-1.39-.22-3.11,1.17-3.85,1.39-.74,3.11-.22,3.85,1.17.74,1.39.22,3.11-1.17,3.85Z"/><path class="cls-1" d="M581.28,728.26c-1.19.78-2.78.45-3.56-.73-.78-1.18-.45-2.78.73-3.56,1.18-.78,2.78-.45,3.56.73.78,1.18.45,2.78-.73,3.56Z"/><path class="cls-1" d="M595.07,746.85c-1,.8-2.46.64-3.26-.37-.8-1-.63-2.46.37-3.26,1-.8,2.46-.64,3.26.36.8,1,.64,2.46-.37,3.26Z"/><path class="cls-1" d="M610.52,764.1c-.83.8-2.16.78-2.96-.05-.8-.83-.78-2.16.05-2.96.83-.8,2.16-.78,2.96.05.8.83.78,2.16-.05,2.96Z"/><path class="cls-1" d="M627.51,779.88c-.68.79-1.87.89-2.66.21-.79-.68-.89-1.87-.21-2.66.68-.79,1.87-.89,2.66-.21.79.68.89,1.87.21,2.66Z"/><path class="cls-1" d="M645.87,794.09c-.55.76-1.62.94-2.38.39-.76-.55-.94-1.62-.39-2.38.55-.76,1.62-.94,2.38-.39.76.55.94,1.62.39,2.38Z"/><path class="cls-1" d="M604.57,414.71c3.7,3.15,4.15,8.7,1,12.4-3.15,3.7-8.7,4.15-12.4,1.01-3.7-3.15-4.15-8.7-1.01-12.4,3.15-3.7,8.7-4.15,12.4-1Z"/><path class="cls-1" d="M620.49,398.76c3.06,3.14,2.99,8.17-.15,11.23-3.14,3.06-8.17,2.99-11.23-.15-3.06-3.14-2.99-8.17.15-11.23,3.14-3.06,8.17-2.99,11.23.15Z"/><path class="cls-1" d="M637.83,384.23c2.49,3.07,2.02,7.59-1.06,10.08-3.07,2.49-7.59,2.02-10.08-1.06-2.49-3.07-2.02-7.59,1.06-10.08,3.07-2.49,7.59-2.02,10.08,1.05Z"/><path class="cls-1" d="M656.47,371.29c1.98,2.97,1.18,6.99-1.79,8.97-2.97,1.98-6.99,1.18-8.97-1.79-1.98-2.97-1.18-6.99,1.79-8.97,2.97-1.98,6.99-1.18,8.97,1.79Z"/><path class="cls-1" d="M676.25,360.03c1.53,2.84.48,6.38-2.36,7.91-2.84,1.53-6.38.48-7.91-2.36-1.53-2.84-.48-6.38,2.36-7.91,2.84-1.53,6.38-.48,7.91,2.36Z"/><path class="cls-1" d="M697.02,350.57c1.14,2.67-.1,5.77-2.77,6.91-2.68,1.14-5.77-.1-6.91-2.77-1.14-2.68.1-5.77,2.77-6.91,2.68-1.14,5.77.1,6.91,2.77Z"/><path class="cls-1" d="M718.61,342.99c.81,2.5-.56,5.18-3.06,5.99-2.5.81-5.18-.56-5.99-3.06-.81-2.5.56-5.18,3.06-5.99,2.5-.81,5.18.56,5.99,3.06Z"/><path class="cls-1" d="M740.84,337.38c.52,2.31-.94,4.61-3.25,5.12-2.31.52-4.61-.94-5.12-3.25-.52-2.31.94-4.61,3.25-5.12,2.31-.52,4.61.94,5.12,3.25Z"/><path class="cls-1" d="M763.53,333.77c.27,2.12-1.23,4.06-3.35,4.33-2.12.27-4.06-1.23-4.33-3.35-.27-2.12,1.23-4.06,3.35-4.33,2.12-.27,4.06,1.23,4.33,3.35Z"/><path class="cls-1" d="M786.49,332.2c.07,1.93-1.44,3.55-3.37,3.62-1.93.07-3.55-1.44-3.62-3.37-.07-1.93,1.44-3.55,3.37-3.62,1.93-.07,3.55,1.44,3.62,3.37Z"/><path class="cls-1" d="M809.53,332.71c-.1,1.74-1.58,3.07-3.32,2.98-1.74-.1-3.07-1.58-2.98-3.32.1-1.74,1.58-3.07,3.32-2.98,1.74.1,3.07,1.58,2.98,3.32Z"/><path class="cls-1" d="M832.47,335.33c-.23,1.55-1.68,2.63-3.24,2.4-1.56-.23-2.63-1.68-2.39-3.24.23-1.56,1.68-2.63,3.24-2.4,1.56.23,2.63,1.68,2.4,3.24Z"/><path class="cls-1" d="M855.1,340.03c-.34,1.38-1.73,2.22-3.11,1.88-1.38-.34-2.22-1.73-1.88-3.11.34-1.38,1.73-2.22,3.11-1.88,1.38.34,2.22,1.73,1.88,3.11Z"/><path class="cls-1" d="M877.23,346.78c-.42,1.21-1.74,1.86-2.95,1.44-1.21-.42-1.85-1.74-1.44-2.95.42-1.21,1.74-1.86,2.95-1.44,1.21.42,1.85,1.74,1.44,2.95Z"/><path class="cls-1" d="M898.68,355.55c-.48,1.05-1.72,1.52-2.77,1.04-1.05-.48-1.52-1.72-1.04-2.77.48-1.05,1.72-1.52,2.77-1.04,1.05.48,1.52,1.72,1.04,2.77Z"/><path class="cls-1" d="M919.24,366.26c-.52.9-1.67,1.22-2.58.7-.9-.52-1.22-1.67-.7-2.58.52-.9,1.67-1.22,2.58-.7.9.52,1.22,1.67.7,2.58Z"/><path class="cls-1" d="M938.78,378.78c-.54.77-1.6.97-2.37.43-.77-.53-.97-1.6-.43-2.37.53-.78,1.6-.97,2.37-.43.77.53.97,1.6.43,2.37Z"/><path class="cls-1" d="M487.66,565.11c-6.43-.69-11.08-6.47-10.39-12.89.69-6.43,6.47-11.08,12.9-10.39,6.43.69,11.08,6.47,10.38,12.9-.69,6.43-6.47,11.08-12.9,10.38Z"/><path class="cls-1" d="M487.02,592.04c-5.83-.09-10.49-4.88-10.4-10.71.09-5.83,4.88-10.49,10.71-10.4,5.83.09,10.49,4.88,10.4,10.71-.09,5.83-4.88,10.49-10.71,10.4Z"/><path class="cls-1" d="M488.74,619.02c-5.24.4-9.82-3.52-10.23-8.76-.4-5.24,3.52-9.82,8.76-10.23,5.24-.4,9.82,3.52,10.23,8.76.4,5.25-3.52,9.83-8.76,10.23Z"/><path class="cls-1" d="M492.84,645.84c-4.68.79-9.12-2.36-9.91-7.04-.79-4.68,2.36-9.12,7.04-9.91,4.68-.79,9.12,2.36,9.91,7.04.79,4.68-2.36,9.12-7.04,9.91Z"/><path class="cls-1" d="M499.35,672.28c-4.14,1.1-8.39-1.36-9.49-5.51-1.1-4.14,1.37-8.39,5.51-9.49,4.14-1.1,8.39,1.37,9.49,5.51,1.1,4.14-1.37,8.39-5.51,9.49Z"/><path class="cls-1" d="M508.2,698.12c-3.63,1.33-7.66-.53-8.99-4.16-1.33-3.63.53-7.66,4.16-8.99,3.63-1.33,7.66.53,8.99,4.16,1.33,3.63-.53,7.66-4.16,8.99Z"/><path class="cls-1" d="M519.36,723.15c-3.16,1.5-6.93.15-8.43-3-1.5-3.16-.15-6.93,3-8.43,3.16-1.5,6.93-.16,8.43,3,1.5,3.16.16,6.93-3,8.43Z"/><path class="cls-1" d="M532.76,747.15c-2.71,1.61-6.22.71-7.83-2-1.61-2.71-.71-6.22,2-7.83,2.71-1.61,6.22-.71,7.83,2,1.61,2.72.71,6.22-2,7.83Z"/><path class="cls-1" d="M548.35,769.88c-2.3,1.68-5.53,1.17-7.21-1.13-1.68-2.3-1.17-5.53,1.14-7.21,2.3-1.68,5.53-1.17,7.21,1.14,1.68,2.3,1.17,5.53-1.14,7.21Z"/><path class="cls-1" d="M565.96,791.16c-1.93,1.7-4.87,1.52-6.57-.41-1.7-1.93-1.52-4.87.41-6.57,1.93-1.7,4.87-1.52,6.57.41,1.7,1.93,1.52,4.87-.41,6.57Z"/><path class="cls-1" d="M585.45,810.77c-1.59,1.68-4.25,1.76-5.93.17-1.68-1.59-1.76-4.25-.17-5.93,1.59-1.69,4.25-1.76,5.93-.17,1.68,1.59,1.76,4.25.17,5.93Z"/><path class="cls-1" d="M606.64,828.52c-1.29,1.64-3.66,1.93-5.31.64-1.64-1.29-1.93-3.66-.64-5.31,1.29-1.64,3.66-1.93,5.31-.64,1.64,1.29,1.93,3.66.64,5.31Z"/><path class="cls-1" d="M629.34,844.3c-1.02,1.58-3.13,2.04-4.71,1.02-1.58-1.02-2.04-3.13-1.02-4.71,1.02-1.58,3.13-2.04,4.71-1.02,1.58,1.02,2.04,3.13,1.02,4.71Z"/><path class="cls-1" d="M653.42,858.04c-.79,1.51-2.66,2.09-4.16,1.3-1.51-.79-2.09-2.65-1.3-4.16.79-1.51,2.65-2.09,4.16-1.3,1.51.79,2.09,2.65,1.3,4.16Z"/><path class="cls-1" d="M678.73,869.57c-.59,1.42-2.22,2.1-3.64,1.51-1.42-.59-2.1-2.22-1.51-3.64.59-1.42,2.22-2.1,3.64-1.5,1.42.59,2.1,2.22,1.51,3.64Z"/><path class="cls-1" d="M705.02,878.74c-.42,1.33-1.83,2.06-3.15,1.65-1.33-.42-2.06-1.83-1.65-3.15.42-1.33,1.83-2.07,3.15-1.65,1.33.41,2.06,1.83,1.65,3.15Z"/><path class="cls-1" d="M732.08,885.45c-.26,1.23-1.46,2.01-2.69,1.75-1.23-.26-2.01-1.46-1.75-2.69.26-1.23,1.46-2.01,2.69-1.75,1.23.26,2.01,1.46,1.75,2.69Z"/><path class="cls-1" d="M759.64,889.65c-.13,1.12-1.14,1.93-2.27,1.8-1.12-.13-1.93-1.14-1.8-2.27.13-1.12,1.14-1.93,2.27-1.8,1.12.13,1.93,1.14,1.8,2.27Z"/><path class="cls-1" d="M495.26,515.34c5.72,1.16,9.42,6.74,8.26,12.46-1.16,5.72-6.74,9.42-12.46,8.26-5.72-1.16-9.42-6.74-8.26-12.46,1.16-5.72,6.74-9.42,12.46-8.26Z"/><path class="cls-1" d="M502.73,489.3c5.05,1.52,7.91,6.85,6.38,11.89-1.52,5.05-6.85,7.91-11.89,6.39-5.05-1.52-7.91-6.85-6.38-11.9,1.52-5.05,6.85-7.91,11.89-6.38Z"/><path class="cls-1" d="M512.51,463.93c4.41,1.78,6.54,6.8,4.76,11.21-1.78,4.41-6.8,6.54-11.21,4.76-4.41-1.78-6.54-6.8-4.76-11.21,1.78-4.41,6.8-6.54,11.21-4.76Z"/><path class="cls-1" d="M524.58,439.49c3.81,1.97,5.3,6.66,3.33,10.47-1.97,3.81-6.66,5.3-10.47,3.33-3.81-1.97-5.3-6.66-3.33-10.47,1.97-3.81,6.66-5.3,10.47-3.33Z"/><path class="cls-1" d="M538.77,416.19c3.26,2.08,4.21,6.4,2.13,9.66-2.08,3.26-6.4,4.21-9.66,2.13-3.26-2.08-4.21-6.4-2.13-9.66,2.08-3.26,6.4-4.21,9.66-2.13Z"/><path class="cls-1" d="M555.01,394.2c2.75,2.14,3.25,6.11,1.11,8.86-2.14,2.75-6.11,3.25-8.86,1.11-2.75-2.14-3.25-6.11-1.11-8.86,2.14-2.75,6.11-3.25,8.86-1.11Z"/><path class="cls-1" d="M573.21,373.64c2.31,2.15,2.43,5.76.28,8.07-2.15,2.31-5.76,2.43-8.07.28-2.31-2.15-2.43-5.76-.28-8.07,2.15-2.31,5.76-2.43,8.07-.28Z"/><path class="cls-1" d="M593.27,354.75c1.89,2.13,1.71,5.39-.42,7.28-2.13,1.9-5.39,1.71-7.28-.42-1.89-2.13-1.71-5.39.42-7.28,2.13-1.9,5.39-1.71,7.28.42Z"/><path class="cls-1" d="M615.01,337.72c1.52,2.07,1.08,4.99-.99,6.51-2.07,1.52-4.99,1.08-6.51-1-1.52-2.07-1.08-4.99.99-6.51,2.07-1.52,4.99-1.08,6.51,1Z"/><path class="cls-1" d="M638.24,322.71c1.19,1.99.55,4.57-1.44,5.76-1.99,1.19-4.57.55-5.76-1.44-1.19-1.99-.55-4.57,1.44-5.76,1.99-1.19,4.57-.55,5.76,1.44Z"/><path class="cls-1" d="M662.78,309.86c.91,1.89.12,4.15-1.77,5.06-1.88.91-4.15.12-5.06-1.77-.91-1.88-.12-4.15,1.77-5.06,1.88-.91,4.15-.12,5.06,1.77Z"/><path class="cls-1" d="M688.4,299.3c.66,1.77-.24,3.74-2.01,4.4-1.77.66-3.74-.24-4.4-2.01-.66-1.77.24-3.74,2.01-4.39,1.77-.66,3.74.24,4.39,2.01Z"/><path class="cls-1" d="M714.89,291.09c.45,1.64-.52,3.34-2.17,3.78-1.64.45-3.34-.52-3.78-2.17-.45-1.64.52-3.34,2.17-3.78,1.64-.45,3.34.52,3.78,2.17Z"/><path class="cls-1" d="M742.04,285.29c.27,1.51-.74,2.96-2.26,3.22-1.51.27-2.95-.74-3.22-2.26-.27-1.51.74-2.95,2.26-3.22,1.51-.27,2.96.74,3.22,2.26Z"/><path class="cls-1" d="M769.63,281.97c.12,1.38-.91,2.6-2.29,2.71-1.38.12-2.6-.91-2.71-2.29-.12-1.38.91-2.6,2.29-2.71,1.38-.12,2.6.91,2.71,2.29Z"/><path class="cls-1" d="M797.44,281.18c0,1.25-1.03,2.26-2.29,2.25-1.25-.01-2.26-1.03-2.25-2.29.01-1.25,1.03-2.26,2.29-2.25,1.25.01,2.26,1.03,2.25,2.29Z"/><path class="cls-1" d="M825.25,282.93c-.12,1.12-1.12,1.94-2.25,1.82-1.12-.12-1.94-1.12-1.82-2.25.12-1.12,1.12-1.94,2.25-1.82,1.12.12,1.94,1.12,1.82,2.25Z"/><path class="cls-1" d="M469.36,736.88c-6.96,2.92-14.96-.35-17.88-7.31-2.92-6.96.35-14.96,7.31-17.88,6.96-2.92,14.96.35,17.88,7.31,2.92,6.96-.35,14.96-7.31,17.88Z"/><path class="cls-1" d="M483.91,764.79c-6.01,3.21-13.49.93-16.7-5.08-3.21-6.01-.93-13.49,5.08-16.7,6.01-3.21,13.49-.93,16.7,5.08,3.21,6.01.93,13.49-5.08,16.7Z"/><path class="cls-1" d="M500.97,791.44c-5.14,3.39-12.06,1.97-15.44-3.18-3.39-5.14-1.97-12.06,3.17-15.44,5.14-3.39,12.06-1.97,15.44,3.17,3.39,5.14,1.97,12.06-3.17,15.44Z"/><path class="cls-1" d="M520.4,816.57c-4.34,3.47-10.67,2.77-14.15-1.57-3.47-4.34-2.77-10.67,1.57-14.15,4.34-3.47,10.67-2.77,14.15,1.57,3.47,4.34,2.77,10.68-1.57,14.15Z"/><path class="cls-1" d="M542.1,839.89c-3.61,3.48-9.35,3.38-12.83-.22-3.48-3.61-3.38-9.35.22-12.83,3.61-3.48,9.35-3.38,12.83.22,3.48,3.6,3.38,9.35-.22,12.83Z"/><path class="cls-1" d="M565.79,861.22c-2.95,3.42-8.1,3.8-11.52.86-3.42-2.95-3.8-8.1-.86-11.52,2.95-3.42,8.1-3.8,11.52-.85,3.42,2.94,3.8,8.1.86,11.52Z"/><path class="cls-1" d="M591.29,880.31c-2.35,3.31-6.93,4.08-10.24,1.74-3.31-2.35-4.08-6.93-1.74-10.24,2.35-3.31,6.93-4.08,10.24-1.74,3.31,2.35,4.08,6.93,1.74,10.24Z"/><path class="cls-1" d="M618.45,897.16c-1.85,3.17-5.92,4.25-9.1,2.4-3.17-1.85-4.25-5.92-2.4-9.1,1.85-3.17,5.92-4.25,9.1-2.4,3.17,1.85,4.25,5.92,2.4,9.1Z"/><path class="cls-1" d="M647.18,911.58c-1.41,3.01-4.99,4.31-8,2.91-3.01-1.41-4.31-4.99-2.91-8,1.41-3.01,4.99-4.31,8-2.91,3.01,1.41,4.31,4.99,2.91,8Z"/><path class="cls-1" d="M677.21,923.36c-1.01,2.83-4.13,4.3-6.95,3.29-2.83-1.01-4.3-4.13-3.29-6.95,1.01-2.83,4.13-4.3,6.95-3.29,2.83,1.01,4.3,4.13,3.29,6.95Z"/><path class="cls-1" d="M708.24,932.38c-.67,2.63-3.35,4.21-5.97,3.54-2.63-.67-4.21-3.35-3.54-5.97.67-2.63,3.35-4.21,5.97-3.54,2.63.67,4.21,3.35,3.54,5.97Z"/><path class="cls-1" d="M740,938.55c-.38,2.41-2.65,4.06-5.07,3.67-2.41-.39-4.06-2.65-3.67-5.07.38-2.41,2.65-4.06,5.07-3.67,2.41.38,4.06,2.65,3.67,5.07Z"/><path class="cls-1" d="M772.2,941.8c-.15,2.2-2.05,3.86-4.24,3.72-2.2-.15-3.86-2.05-3.72-4.24.15-2.2,2.05-3.86,4.24-3.72,2.2.15,3.86,2.05,3.72,4.24Z"/><path class="cls-1" d="M804.57,942.12c.05,1.99-1.52,3.64-3.51,3.69-1.99.05-3.64-1.52-3.69-3.5-.05-1.99,1.52-3.64,3.51-3.69,1.99-.05,3.64,1.52,3.69,3.51Z"/><path class="cls-1" d="M836.85,939.5c.21,1.78-1.07,3.39-2.85,3.6-1.78.21-3.39-1.07-3.6-2.85-.21-1.78,1.07-3.39,2.85-3.6,1.78-.21,3.39,1.07,3.6,2.85Z"/><path class="cls-1" d="M868.78,933.97c.33,1.58-.68,3.13-2.27,3.46-1.58.33-3.13-.68-3.47-2.26-.33-1.58.68-3.13,2.27-3.47,1.58-.33,3.13.68,3.47,2.27Z"/><path class="cls-1" d="M900.12,925.57c.43,1.4-.36,2.87-1.76,3.3-1.4.43-2.87-.36-3.3-1.76-.43-1.4.36-2.87,1.76-3.3,1.4-.43,2.87.36,3.3,1.76Z"/><path class="cls-1" d="M930.61,914.33c.5,1.22-.09,2.61-1.31,3.11-1.22.5-2.61-.09-3.11-1.31-.5-1.22.09-2.62,1.31-3.11,1.22-.5,2.61.09,3.11,1.31Z"/><path class="cls-1" d="M449.04,681.83c6.49-2.05,13.4,1.55,15.45,8.04,2.05,6.49-1.55,13.4-8.04,15.45-6.49,2.05-13.4-1.55-15.45-8.04-2.05-6.49,1.55-13.4,8.04-15.45Z"/><path class="cls-1" d="M441.95,651.11c5.99-1.3,11.91,2.51,13.21,8.5,1.3,6-2.5,11.91-8.5,13.21-5.99,1.3-11.91-2.51-13.21-8.5-1.3-6,2.5-11.91,8.5-13.21Z"/><path class="cls-1" d="M437.56,619.77c5.5-.68,10.5,3.23,11.18,8.72.68,5.49-3.23,10.5-8.73,11.17-5.5.68-10.5-3.23-11.18-8.72-.68-5.5,3.23-10.5,8.72-11.17Z"/><path class="cls-1" d="M435.96,588.05c5-.16,9.18,3.77,9.33,8.76.16,5-3.77,9.18-8.77,9.33-5,.16-9.18-3.77-9.33-8.77-.16-5,3.77-9.18,8.77-9.33Z"/><path class="cls-1" d="M437.22,556.19c4.51.28,7.94,4.15,7.67,8.66-.28,4.51-4.15,7.94-8.66,7.66-4.51-.28-7.94-4.15-7.66-8.66.28-4.51,4.15-7.94,8.66-7.67Z"/><path class="cls-1" d="M441.34,524.44c4.03.62,6.8,4.4,6.18,8.43-.62,4.03-4.4,6.8-8.43,6.18-4.03-.62-6.8-4.4-6.18-8.43.62-4.03,4.4-6.8,8.43-6.18Z"/><path class="cls-1" d="M448.31,493.09c3.58.89,5.75,4.52,4.86,8.09-.89,3.58-4.52,5.75-8.09,4.86-3.58-.89-5.75-4.52-4.86-8.09.89-3.58,4.52-5.75,8.09-4.86Z"/><path class="cls-1" d="M458.15,462.43c3.14,1.1,4.79,4.55,3.68,7.69-1.1,3.14-4.55,4.79-7.69,3.68-3.14-1.1-4.79-4.55-3.68-7.69,1.1-3.14,4.55-4.79,7.68-3.68Z"/><path class="cls-1" d="M470.74,432.74c2.73,1.26,3.92,4.49,2.66,7.21-1.26,2.73-4.48,3.92-7.21,2.66-2.73-1.26-3.92-4.48-2.66-7.21,1.26-2.73,4.48-3.92,7.21-2.66Z"/><path class="cls-1" d="M485.95,404.31c2.34,1.35,3.14,4.34,1.8,6.68-1.35,2.34-4.34,3.14-6.68,1.8-2.34-1.35-3.14-4.34-1.8-6.68,1.35-2.34,4.34-3.14,6.68-1.8Z"/><path class="cls-1" d="M503.64,377.45c1.98,1.4,2.46,4.14,1.06,6.13-1.4,1.98-4.14,2.46-6.13,1.06-1.98-1.4-2.46-4.14-1.06-6.13,1.4-1.98,4.14-2.46,6.13-1.06Z"/><path class="cls-1" d="M523.69,352.18c1.68,1.42,1.88,3.94.46,5.61-1.42,1.68-3.94,1.88-5.61.46-1.68-1.42-1.88-3.94-.46-5.61,1.42-1.68,3.94-1.88,5.62-.46Z"/><path class="cls-1" d="M546.07,328.75c1.39,1.43,1.36,3.71-.07,5.1-1.43,1.39-3.71,1.36-5.1-.07-1.39-1.43-1.36-3.71.07-5.1,1.43-1.39,3.71-1.36,5.1.07Z"/><path class="cls-1" d="M570.55,307.38c1.13,1.4.92,3.45-.48,4.58-1.4,1.13-3.45.92-4.58-.48-1.13-1.4-.92-3.45.48-4.58,1.4-1.13,3.45-.92,4.58.48Z"/><path class="cls-1" d="M596.92,288.32c.9,1.35.54,3.17-.81,4.08-1.35.9-3.17.54-4.08-.81-.9-1.35-.54-3.17.81-4.08,1.35-.9,3.17-.54,4.08.81Z"/><path class="cls-1" d="M624.94,271.77c.7,1.29.22,2.9-1.07,3.59-1.29.7-2.9.22-3.59-1.07-.7-1.29-.22-2.89,1.07-3.59,1.29-.7,2.9-.22,3.59,1.07Z"/><path class="cls-1" d="M654.35,257.85c.51,1.21-.06,2.62-1.27,3.13-1.21.51-2.62-.06-3.13-1.27-.51-1.22.05-2.62,1.27-3.13,1.21-.51,2.62.06,3.13,1.27Z"/><path class="cls-1" d="M1094.44,768.49c-.18,3.22-2.93,5.68-6.15,5.51-3.22-.18-5.68-2.93-5.51-6.15.18-3.22,2.93-5.68,6.15-5.51,3.22.18,5.68,2.93,5.51,6.15Z"/><path class="cls-1" d="M1107.9,768.12c.11,2.91-2.17,5.36-5.08,5.47-2.91.11-5.37-2.17-5.47-5.08-.11-2.91,2.17-5.37,5.08-5.47,2.91-.11,5.37,2.17,5.47,5.08Z"/><path class="cls-1" d="M1121.35,766.56c.34,2.61-1.5,5.01-4.12,5.35-2.61.34-5.01-1.5-5.35-4.12-.34-2.61,1.5-5.01,4.12-5.35,2.61-.34,5.01,1.5,5.35,4.12Z"/><path class="cls-1" d="M1134.67,763.82c.52,2.32-.94,4.62-3.26,5.14-2.32.52-4.62-.94-5.14-3.26-.52-2.32.94-4.62,3.26-5.14,2.32-.52,4.62.94,5.14,3.26Z"/><path class="cls-1" d="M1147.72,759.91c.66,2.04-.47,4.23-2.51,4.88-2.04.65-4.23-.47-4.88-2.51-.66-2.04.47-4.23,2.51-4.88,2.04-.65,4.23.47,4.88,2.51Z"/><path class="cls-1" d="M1160.37,754.82c.76,1.78-.07,3.83-1.84,4.59-1.77.76-3.83-.07-4.59-1.84-.76-1.77.07-3.83,1.84-4.59,1.77-.76,3.83.07,4.59,1.84Z"/><path class="cls-1" d="M1172.52,748.63c.83,1.53.26,3.44-1.27,4.26-1.53.83-3.44.26-4.26-1.27-.83-1.53-.26-3.44,1.27-4.26,1.53-.83,3.44-.26,4.26,1.27Z"/><path class="cls-1" d="M1184.07,741.38c.86,1.31.51,3.06-.8,3.93-1.3.86-3.06.51-3.93-.8-.86-1.3-.51-3.06.8-3.93,1.3-.86,3.06-.51,3.93.8Z"/><path class="cls-1" d="M1194.92,733.08c.89,1.1.72,2.71-.38,3.59-1.1.89-2.7.72-3.59-.38-.89-1.1-.72-2.71.38-3.59,1.1-.89,2.7-.72,3.59.38Z"/><path class="cls-1" d="M1205,723.81c.89.91.88,2.38-.03,3.27-.91.89-2.38.88-3.27-.03-.89-.91-.88-2.38.03-3.27.91-.89,2.38-.88,3.27.03Z"/><path class="cls-1" d="M1214.28,713.6c.88.75.99,2.08.23,2.96-.75.88-2.08.99-2.96.23-.88-.75-.99-2.08-.23-2.96.75-.88,2.08-.99,2.96-.23Z"/><path class="cls-1" d="M1222.66,702.47c.86.61,1.07,1.8.46,2.66-.61.86-1.8,1.07-2.67.46-.86-.61-1.07-1.8-.46-2.67.61-.86,1.8-1.07,2.66-.46Z"/><path class="cls-1" d="M1230.04,690.67c.82.47,1.1,1.52.62,2.34-.47.82-1.52,1.1-2.34.62-.82-.47-1.09-1.52-.62-2.34.48-.82,1.52-1.1,2.34-.62Z"/><path class="cls-1" d="M1236.24,678.32c.77.35,1.11,1.26.76,2.03-.35.77-1.26,1.11-2.03.76-.77-.35-1.11-1.26-.76-2.03.35-.77,1.26-1.11,2.03-.76Z"/><path class="cls-1" d="M1241.3,665.49c.72.25,1.1,1.04.84,1.76-.25.72-1.04,1.1-1.76.84-.72-.25-1.1-1.04-.84-1.76.25-.72,1.04-1.1,1.76-.84Z"/><path class="cls-1" d="M1245.17,652.24c.67.17,1.07.85.9,1.52-.17.67-.85,1.07-1.52.9-.67-.17-1.07-.85-.9-1.52.17-.67.85-1.07,1.52-.9Z"/><path class="cls-1" d="M1247.79,638.66c.61.09,1.04.67.94,1.29-.09.62-.67,1.04-1.29.94-.62-.09-1.04-.67-.94-1.29.09-.62.67-1.04,1.29-.94Z"/><path class="cls-1" d="M1249.17,624.85c.56.03.99.51.97,1.07-.03.56-.51,1-1.07.97-.56-.03-1-.51-.96-1.07.03-.56.51-1,1.07-.97Z"/><path class="cls-1" d="M1069.5,765.99c.43-2.87,3.1-4.85,5.97-4.42,2.87.43,4.85,3.1,4.42,5.97s-3.1,4.85-5.97,4.42c-2.87-.43-4.85-3.1-4.42-5.97Z"/><path class="cls-1" d="M1056.42,762.97c.62-2.54,3.19-4.09,5.72-3.47,2.54.62,4.09,3.18,3.47,5.72-.62,2.54-3.18,4.09-5.72,3.47-2.54-.62-4.09-3.18-3.47-5.72Z"/><path class="cls-1" d="M1043.61,758.79c.77-2.23,3.19-3.41,5.42-2.65,2.23.77,3.41,3.19,2.65,5.42-.77,2.23-3.2,3.41-5.42,2.65-2.23-.77-3.41-3.2-2.65-5.42Z"/><path class="cls-1" d="M1031.19,753.42c.88-1.94,3.17-2.8,5.11-1.92,1.94.88,2.8,3.17,1.92,5.11-.88,1.94-3.17,2.8-5.11,1.92-1.94-.88-2.8-3.17-1.92-5.11Z"/><path class="cls-1" d="M1019.18,746.94c.96-1.68,3.1-2.27,4.78-1.32,1.68.96,2.27,3.1,1.32,4.78-.96,1.68-3.09,2.27-4.78,1.32-1.68-.96-2.27-3.1-1.32-4.78Z"/><path class="cls-1" d="M1007.7,739.29c1.02-1.44,3.01-1.79,4.45-.77,1.44,1.02,1.79,3.01.77,4.45-1.02,1.44-3.01,1.78-4.45.77-1.44-1.02-1.79-3.01-.77-4.45Z"/><path class="cls-1" d="M996.91,730.7c1.02-1.2,2.82-1.36,4.03-.34,1.21,1.02,1.35,2.82.34,4.03-1.02,1.21-2.82,1.35-4.03.34-1.21-1.02-1.36-2.82-.34-4.03Z"/><path class="cls-1" d="M986.99,721.23c1.01-.99,2.63-.99,3.62.02,1,1.01.99,2.63-.02,3.62-1.01,1-2.63.99-3.62-.02-1-1.01-.99-2.63.02-3.62Z"/><path class="cls-1" d="M978.01,710.89c.99-.81,2.44-.66,3.24.32.81.99.66,2.44-.32,3.25-.99.81-2.44.66-3.25-.32-.81-.99-.66-2.44.33-3.25Z"/><path class="cls-1" d="M970,699.78c.95-.64,2.25-.39,2.89.57.64.95.39,2.25-.57,2.89-.95.64-2.25.39-2.89-.57-.64-.95-.39-2.25.57-2.89Z"/><path class="cls-1" d="M963,687.94c.91-.5,2.06-.16,2.56.75.5.91.16,2.06-.75,2.56-.91.5-2.06.16-2.56-.75-.5-.91-.16-2.06.75-2.56Z"/><path class="cls-1" d="M957.08,675.47c.86-.37,1.87.02,2.24.89.37.86-.02,1.87-.89,2.24-.86.37-1.87-.02-2.24-.89-.37-.86.02-1.87.89-2.24Z"/><path class="cls-1" d="M952.3,662.46c.81-.27,1.68.17,1.95.98.27.81-.17,1.68-.98,1.95-.81.27-1.68-.17-1.95-.98-.27-.81.17-1.68.98-1.95Z"/><path class="cls-1" d="M948.71,649.04c.75-.17,1.5.29,1.67,1.04.17.75-.29,1.5-1.04,1.67-.75.17-1.5-.29-1.67-1.04-.17-.75.29-1.5,1.04-1.67Z"/><path class="cls-1" d="M946.34,635.32c.69-.1,1.32.38,1.42,1.07.1.69-.38,1.32-1.07,1.42-.69.1-1.32-.38-1.42-1.07-.1-.69.38-1.32,1.07-1.42Z"/><path class="cls-1" d="M945.22,621.43c.63-.03,1.16.45,1.19,1.08.03.63-.45,1.16-1.07,1.19-.63.03-1.16-.45-1.19-1.07-.03-.63.45-1.16,1.07-1.19Z"/><path class="cls-1" d="M945.36,607.52c.56.02,1.01.49.98,1.06-.02.56-.49,1-1.06.98-.56-.02-1-.49-.99-1.06.02-.56.49-1,1.06-.98Z"/><path class="cls-1" d="M1192.64,795.76c1.87,3.87.25,8.53-3.63,10.4-3.87,1.87-8.53.25-10.4-3.63-1.87-3.87-.25-8.53,3.63-10.4,3.87-1.87,8.53-.25,10.4,3.63Z"/><path class="cls-1" d="M1208.08,786.67c2,3.32.93,7.64-2.39,9.64-3.32,2-7.64.93-9.64-2.39-2-3.32-.93-7.64,2.39-9.64,3.32-2,7.64-.93,9.64,2.39Z"/><path class="cls-1" d="M1222.7,776.2c2.08,2.82,1.48,6.78-1.34,8.86-2.82,2.08-6.78,1.48-8.86-1.34-2.08-2.82-1.48-6.78,1.34-8.86,2.82-2.08,6.78-1.48,8.86,1.34Z"/><path class="cls-1" d="M1236.38,764.44c2.1,2.36,1.88,5.98-.48,8.07-2.36,2.1-5.98,1.88-8.07-.48-2.1-2.36-1.88-5.98.48-8.07,2.36-2.1,5.98-1.88,8.07.48Z"/><path class="cls-1" d="M1249,751.41c2.09,1.95,2.2,5.22.25,7.31-1.95,2.09-5.22,2.2-7.31.25-2.09-1.95-2.2-5.22-.25-7.31,1.95-2.09,5.22-2.2,7.31-.25Z"/><path class="cls-1" d="M1260.49,737.26c2.04,1.59,2.41,4.53.82,6.57-1.59,2.04-4.53,2.41-6.57.82-2.04-1.59-2.41-4.53-.82-6.57,1.59-2.04,4.53-2.41,6.57-.82Z"/><path class="cls-1" d="M1270.71,722.06c1.97,1.25,2.55,3.86,1.3,5.83-1.25,1.97-3.86,2.55-5.83,1.3-1.97-1.25-2.55-3.86-1.3-5.83,1.25-1.97,3.86-2.55,5.83-1.3Z"/><path class="cls-1" d="M1279.55,706.04c1.86.97,2.59,3.26,1.62,5.12-.97,1.86-3.26,2.59-5.12,1.63-1.86-.97-2.59-3.26-1.63-5.12.97-1.86,3.26-2.59,5.12-1.62Z"/><path class="cls-1" d="M1286.9,689.27c1.75.71,2.59,2.71,1.88,4.46-.71,1.75-2.71,2.6-4.46,1.88-1.75-.71-2.6-2.71-1.88-4.46.71-1.75,2.71-2.6,4.46-1.88Z"/><path class="cls-1" d="M1292.7,671.89c1.63.49,2.56,2.21,2.07,3.85-.49,1.63-2.21,2.56-3.85,2.07-1.63-.49-2.56-2.21-2.07-3.85.49-1.63,2.21-2.56,3.85-2.07Z"/><path class="cls-1" d="M1296.92,654.01c1.51.3,2.49,1.77,2.19,3.28-.3,1.51-1.77,2.49-3.28,2.19-1.51-.3-2.49-1.77-2.19-3.28.3-1.51,1.77-2.49,3.28-2.19Z"/><path class="cls-1" d="M1299.49,635.78c1.38.15,2.38,1.39,2.24,2.78-.15,1.38-1.39,2.38-2.78,2.24-1.38-.15-2.38-1.39-2.24-2.78.15-1.38,1.39-2.38,2.78-2.24Z"/><path class="cls-1" d="M1300.39,617.35c1.26.02,2.26,1.05,2.24,2.31-.02,1.26-1.05,2.26-2.31,2.24-1.26-.02-2.26-1.05-2.24-2.31.02-1.26,1.05-2.26,2.31-2.24Z"/><path class="cls-1" d="M1299.62,598.87c1.13-.09,2.12.76,2.21,1.89.09,1.13-.76,2.12-1.89,2.21-1.13.09-2.12-.76-2.21-1.89-.09-1.13.76-2.12,1.89-2.21Z"/><path class="cls-1" d="M1297.18,580.51c1.01-.17,1.97.51,2.14,1.52.17,1.01-.51,1.97-1.52,2.14-1.01.17-1.97-.51-2.14-1.52-.17-1.01.51-1.97,1.52-2.14Z"/><path class="cls-1" d="M1293.09,562.42c.9-.24,1.81.3,2.05,1.2.23.9-.3,1.81-1.2,2.05-.9.23-1.81-.3-2.05-1.2-.23-.9.3-1.81,1.2-2.04Z"/><path class="cls-1" d="M1287.36,544.77c.78-.29,1.65.12,1.94.9.29.78-.12,1.65-.9,1.94-.78.29-1.65-.12-1.94-.9-.29-.78.12-1.65.9-1.94Z"/><path class="cls-1" d="M1280.05,527.72c.68-.33,1.49-.04,1.82.64.33.68.04,1.49-.64,1.82-.68.33-1.49.04-1.82-.64-.33-.68-.04-1.49.64-1.82Z"/><path class="cls-1" d="M1161.86,808.95c-1.36-3.64.49-7.69,4.14-9.05,3.64-1.36,7.69.49,9.05,4.14,1.36,3.64-.49,7.69-4.14,9.05-3.64,1.36-7.69-.49-9.05-4.13Z"/><path class="cls-1" d="M1144.52,813.91c-.92-3.39,1.08-6.88,4.47-7.8,3.39-.92,6.88,1.08,7.8,4.47.92,3.39-1.08,6.88-4.47,7.8-3.39.92-6.88-1.08-7.8-4.47Z"/><path class="cls-1" d="M1126.74,817.34c-.55-3.12,1.53-6.1,4.65-6.65,3.12-.55,6.1,1.53,6.65,4.65.55,3.12-1.53,6.1-4.65,6.65-3.12.55-6.1-1.53-6.65-4.65Z"/><path class="cls-1" d="M1108.66,819.17c-.24-2.85,1.88-5.35,4.73-5.59,2.85-.24,5.35,1.88,5.59,4.73.24,2.85-1.88,5.35-4.73,5.59-2.85.24-5.35-1.88-5.59-4.73Z"/><path class="cls-1" d="M1090.46,819.39c.02-2.58,2.13-4.65,4.71-4.62,2.58.02,4.65,2.13,4.62,4.71-.02,2.58-2.13,4.65-4.71,4.62-2.58-.02-4.65-2.13-4.62-4.71Z"/><path class="cls-1" d="M1072.27,817.99c.23-2.31,2.3-4,4.61-3.76,2.31.23,4,2.3,3.76,4.61-.23,2.31-2.3,4-4.61,3.76-2.31-.23-4-2.3-3.76-4.61Z"/><path class="cls-1" d="M1054.26,814.95c.4-2.06,2.39-3.4,4.45-3,2.06.4,3.4,2.39,3,4.45-.4,2.06-2.39,3.4-4.45,3-2.06-.4-3.4-2.39-3-4.45Z"/><path class="cls-1" d="M1036.57,810.27c.53-1.81,2.44-2.85,4.25-2.31,1.81.53,2.85,2.44,2.31,4.25-.54,1.81-2.44,2.85-4.25,2.31-1.81-.54-2.85-2.44-2.31-4.25Z"/><path class="cls-1" d="M1019.35,804c.63-1.58,2.43-2.35,4.02-1.72,1.59.63,2.35,2.43,1.72,4.02-.63,1.58-2.43,2.35-4.02,1.72-1.59-.64-2.35-2.44-1.72-4.02Z"/><path class="cls-1" d="M1002.72,796.17c.7-1.37,2.38-1.92,3.76-1.22,1.37.7,1.92,2.38,1.22,3.76-.7,1.37-2.38,1.92-3.76,1.22-1.37-.7-1.92-2.38-1.22-3.76Z"/><path class="cls-1" d="M986.81,786.81c.75-1.18,2.31-1.53,3.49-.79,1.18.75,1.53,2.31.79,3.49-.75,1.18-2.31,1.53-3.49.79-1.18-.75-1.53-2.31-.79-3.49Z"/><path class="cls-1" d="M971.75,776.03c.77-1,2.2-1.18,3.2-.41s1.18,2.21.41,3.2c-.77,1-2.2,1.18-3.2.41-1-.77-1.18-2.2-.41-3.2Z"/><path class="cls-1" d="M957.72,763.97c.77-.83,2.07-.88,2.9-.11.83.77.88,2.07.12,2.9-.77.83-2.07.88-2.9.11-.83-.77-.88-2.07-.11-2.9Z"/><path class="cls-1" d="M944.86,750.71c.76-.69,1.93-.63,2.61.13.69.76.63,1.93-.13,2.61-.76.69-1.93.63-2.61-.12-.69-.76-.63-1.93.12-2.61Z"/><path class="cls-1" d="M933.26,736.32c.73-.56,1.78-.41,2.34.32.56.74.41,1.78-.32,2.34-.74.56-1.78.41-2.34-.32-.56-.73-.41-1.78.32-2.34Z"/><path class="cls-1" d="M923.04,720.89c.71-.44,1.64-.21,2.07.49.44.71.22,1.64-.49,2.07-.71.44-1.64.22-2.07-.49-.44-.71-.22-1.64.49-2.07Z"/><path class="cls-1" d="M914.27,704.57c.67-.33,1.49-.05,1.82.62.33.67.05,1.49-.62,1.82-.68.33-1.49.05-1.82-.62-.33-.67-.05-1.49.62-1.82Z"/><path class="cls-1" d="M1310.38,754.75c4.4,3.1,5.45,9.18,2.35,13.58-3.1,4.4-9.18,5.45-13.58,2.35-4.4-3.1-5.45-9.18-2.35-13.58,3.1-4.4,9.18-5.45,13.58-2.35Z"/><path class="cls-1" d="M1321.79,735.43c4.21,2.43,5.65,7.81,3.21,12.02-2.43,4.21-7.81,5.65-12.02,3.22-4.21-2.43-5.65-7.81-3.22-12.02,2.43-4.21,7.81-5.65,12.02-3.22Z"/><path class="cls-1" d="M1331.46,715.08c3.99,1.83,5.74,6.54,3.91,10.53-1.83,3.99-6.54,5.73-10.53,3.91-3.99-1.83-5.73-6.54-3.91-10.53,1.83-3.99,6.54-5.73,10.53-3.91Z"/><path class="cls-1" d="M1339.33,693.87c3.73,1.32,5.69,5.41,4.38,9.14-1.32,3.73-5.41,5.69-9.14,4.38-3.73-1.32-5.69-5.41-4.38-9.14,1.32-3.73,5.41-5.69,9.14-4.38Z"/><path class="cls-1" d="M1345.27,671.97c3.46.87,5.57,4.38,4.7,7.85-.87,3.46-4.38,5.57-7.85,4.7-3.46-.87-5.57-4.38-4.7-7.85.87-3.46,4.38-5.57,7.85-4.7Z"/><path class="cls-1" d="M1349.23,649.56c3.19.49,5.37,3.47,4.88,6.66-.49,3.19-3.47,5.37-6.66,4.88-3.19-.49-5.37-3.47-4.88-6.66.49-3.19,3.47-5.37,6.66-4.88Z"/><path class="cls-1" d="M1351.18,626.81c2.9.18,5.11,2.68,4.93,5.58-.18,2.9-2.68,5.11-5.58,4.93-2.9-.18-5.11-2.68-4.93-5.58.18-2.9,2.68-5.11,5.58-4.93Z"/><path class="cls-1" d="M1351.08,603.94c2.62-.08,4.82,1.98,4.89,4.61.08,2.62-1.99,4.82-4.61,4.89-2.62.08-4.82-1.99-4.89-4.61-.08-2.63,1.99-4.82,4.61-4.89Z"/><path class="cls-1" d="M1348.9,581.11c2.35-.29,4.49,1.38,4.78,3.73.29,2.35-1.38,4.49-3.73,4.78-2.35.29-4.49-1.38-4.79-3.73-.29-2.35,1.38-4.49,3.73-4.78Z"/><path class="cls-1" d="M1344.69,558.53c2.09-.46,4.15.87,4.61,2.96.46,2.09-.87,4.15-2.96,4.61-2.09.46-4.15-.87-4.61-2.96-.46-2.09.87-4.15,2.96-4.61Z"/><path class="cls-1" d="M1338.46,536.37c1.84-.58,3.8.44,4.39,2.28.58,1.84-.44,3.8-2.28,4.39-1.84.58-3.8-.44-4.39-2.28-.58-1.84.44-3.8,2.28-4.39Z"/><path class="cls-1" d="M1330.25,514.83c1.61-.67,3.45.08,4.13,1.69.67,1.61-.08,3.45-1.69,4.13-1.61.67-3.45-.08-4.13-1.69-.67-1.61.08-3.46,1.69-4.13Z"/><path class="cls-1" d="M1320.08,494.11c1.39-.74,3.11-.22,3.85,1.17.74,1.39.22,3.11-1.17,3.85-1.39.74-3.11.22-3.85-1.17-.74-1.39-.22-3.11,1.17-3.85Z"/><path class="cls-1" d="M1308.05,474.37c1.19-.78,2.78-.45,3.56.73.78,1.19.45,2.78-.73,3.56-1.18.78-2.78.45-3.56-.73-.78-1.18-.45-2.78.73-3.56Z"/><path class="cls-1" d="M1294.27,455.78c1-.8,2.46-.64,3.26.36.8,1,.63,2.46-.37,3.26-1,.8-2.46.64-3.26-.37-.8-1-.64-2.46.36-3.26Z"/><path class="cls-1" d="M1278.81,438.52c.83-.8,2.16-.78,2.96.05.8.83.78,2.16-.05,2.96-.83.8-2.16.78-2.96-.05-.8-.83-.78-2.16.05-2.96Z"/><path class="cls-1" d="M1261.82,422.75c.68-.79,1.87-.89,2.66-.21.79.68.89,1.87.21,2.66-.68.79-1.87.89-2.66.21-.79-.68-.89-1.87-.21-2.66Z"/><path class="cls-1" d="M1243.47,408.54c.55-.76,1.62-.94,2.38-.39.76.55.94,1.62.39,2.38-.55.76-1.62.94-2.38.39-.76-.55-.94-1.62-.39-2.38Z"/><path class="cls-1" d="M1284.77,787.92c-3.7-3.15-4.15-8.7-1-12.4,3.15-3.7,8.7-4.15,12.4-1,3.7,3.15,4.15,8.7,1,12.4-3.15,3.7-8.7,4.15-12.4,1Z"/><path class="cls-1" d="M1268.84,803.86c-3.06-3.14-2.99-8.17.15-11.23,3.14-3.06,8.17-2.99,11.23.15,3.06,3.14,2.99,8.17-.15,11.23-3.14,3.06-8.17,2.99-11.23-.15Z"/><path class="cls-1" d="M1251.51,818.4c-2.49-3.07-2.02-7.59,1.05-10.08,3.07-2.49,7.59-2.02,10.08,1.05,2.49,3.07,2.02,7.59-1.06,10.08-3.07,2.49-7.59,2.02-10.08-1.06Z"/><path class="cls-1" d="M1232.87,831.34c-1.98-2.97-1.18-6.99,1.79-8.97,2.97-1.98,6.99-1.18,8.97,1.79,1.98,2.97,1.18,6.99-1.79,8.97-2.97,1.98-6.99,1.18-8.97-1.79Z"/><path class="cls-1" d="M1213.08,842.59c-1.53-2.84-.48-6.38,2.36-7.91,2.84-1.53,6.38-.48,7.91,2.36,1.53,2.84.48,6.38-2.36,7.91-2.84,1.53-6.38.48-7.91-2.36Z"/><path class="cls-1" d="M1192.32,852.06c-1.14-2.68.1-5.77,2.77-6.91,2.68-1.14,5.77.1,6.91,2.77,1.14,2.67-.1,5.77-2.77,6.91-2.67,1.14-5.77-.1-6.92-2.77Z"/><path class="cls-1" d="M1170.73,859.64c-.81-2.5.56-5.18,3.06-5.99,2.5-.81,5.18.56,5.99,3.06.81,2.5-.56,5.18-3.06,5.99-2.5.81-5.18-.56-5.99-3.06Z"/><path class="cls-1" d="M1148.5,865.25c-.52-2.31.94-4.61,3.25-5.12,2.31-.52,4.61.94,5.12,3.26.52,2.31-.94,4.61-3.25,5.12-2.31.52-4.61-.94-5.12-3.25Z"/><path class="cls-1" d="M1125.81,868.86c-.27-2.12,1.23-4.06,3.35-4.33,2.12-.27,4.06,1.23,4.33,3.35.27,2.12-1.23,4.06-3.35,4.33-2.12.27-4.06-1.23-4.33-3.35Z"/><path class="cls-1" d="M1102.85,870.43c-.07-1.93,1.44-3.55,3.37-3.62,1.93-.07,3.55,1.44,3.62,3.37.07,1.93-1.44,3.55-3.37,3.62-1.93.07-3.55-1.44-3.62-3.37Z"/><path class="cls-1" d="M1079.8,869.92c.1-1.74,1.58-3.07,3.32-2.98,1.74.1,3.07,1.58,2.98,3.32-.1,1.74-1.58,3.07-3.32,2.98-1.74-.1-3.07-1.58-2.98-3.32Z"/><path class="cls-1" d="M1056.87,867.3c.23-1.56,1.68-2.63,3.24-2.4,1.55.23,2.63,1.68,2.4,3.24-.23,1.56-1.68,2.63-3.24,2.4-1.55-.23-2.63-1.68-2.4-3.24Z"/><path class="cls-1" d="M1034.24,862.59c.34-1.38,1.73-2.22,3.11-1.88,1.38.34,2.22,1.73,1.88,3.11-.34,1.38-1.73,2.22-3.11,1.88-1.38-.34-2.22-1.73-1.88-3.11Z"/><path class="cls-1" d="M1012.1,855.84c.42-1.21,1.74-1.85,2.95-1.44,1.21.42,1.86,1.74,1.44,2.95-.42,1.21-1.74,1.85-2.95,1.44-1.21-.42-1.85-1.74-1.44-2.95Z"/><path class="cls-1" d="M990.66,847.08c.48-1.05,1.72-1.52,2.77-1.04,1.05.48,1.52,1.72,1.04,2.77-.48,1.05-1.72,1.52-2.77,1.04-1.05-.48-1.52-1.72-1.04-2.77Z"/><path class="cls-1" d="M970.09,836.37c.52-.91,1.67-1.22,2.58-.7.9.52,1.22,1.67.7,2.58-.52.91-1.67,1.22-2.58.7-.9-.52-1.22-1.67-.7-2.58Z"/><path class="cls-1" d="M950.55,823.85c.54-.77,1.6-.97,2.37-.43.77.53.97,1.6.43,2.37-.53.78-1.6.97-2.37.43-.78-.53-.97-1.6-.44-2.37Z"/><path class="cls-1" d="M1401.67,637.52c6.43.69,11.08,6.47,10.38,12.9-.69,6.43-6.47,11.08-12.9,10.38-6.43-.69-11.08-6.47-10.38-12.9.69-6.43,6.47-11.08,12.9-10.38Z"/><path class="cls-1" d="M1402.31,610.59c5.83.09,10.49,4.88,10.4,10.71-.09,5.83-4.88,10.49-10.71,10.4-5.83-.08-10.49-4.88-10.4-10.71.09-5.83,4.88-10.49,10.71-10.4Z"/><path class="cls-1" d="M1400.59,583.61c5.24-.4,9.82,3.52,10.23,8.76.41,5.25-3.52,9.82-8.76,10.23-5.25.4-9.82-3.52-10.23-8.77-.4-5.24,3.52-9.82,8.76-10.23Z"/><path class="cls-1" d="M1396.49,556.79c4.68-.79,9.12,2.36,9.91,7.04.79,4.68-2.36,9.12-7.04,9.91-4.68.79-9.12-2.36-9.91-7.04-.79-4.68,2.36-9.12,7.04-9.91Z"/><path class="cls-1" d="M1389.99,530.35c4.14-1.1,8.39,1.36,9.49,5.51,1.1,4.14-1.37,8.39-5.51,9.49-4.14,1.1-8.39-1.37-9.49-5.51-1.1-4.14,1.37-8.39,5.51-9.49Z"/><path class="cls-1" d="M1381.13,504.51c3.63-1.33,7.66.53,8.99,4.16,1.33,3.63-.53,7.66-4.16,8.99-3.63,1.33-7.66-.53-8.99-4.16-1.33-3.63.53-7.66,4.16-8.99Z"/><path class="cls-1" d="M1369.98,479.48c3.16-1.5,6.93-.15,8.43,3,1.5,3.16.16,6.93-3,8.43-3.16,1.5-6.93.16-8.43-3-1.5-3.16-.16-6.93,3-8.43Z"/><path class="cls-1" d="M1356.57,455.48c2.71-1.61,6.22-.71,7.83,2,1.61,2.71.71,6.22-2,7.83-2.71,1.61-6.22.71-7.83-2-1.61-2.72-.71-6.22,2-7.83Z"/><path class="cls-1" d="M1340.99,432.75c2.3-1.68,5.53-1.17,7.21,1.13,1.68,2.3,1.17,5.53-1.14,7.21-2.3,1.68-5.53,1.17-7.21-1.14-1.68-2.3-1.17-5.53,1.14-7.21Z"/><path class="cls-1" d="M1323.38,411.47c1.93-1.7,4.87-1.52,6.57.41,1.7,1.93,1.52,4.87-.41,6.57-1.93,1.7-4.87,1.52-6.57-.41-1.7-1.93-1.52-4.87.41-6.57Z"/><path class="cls-1" d="M1303.89,391.86c1.59-1.68,4.25-1.76,5.93-.17,1.68,1.59,1.76,4.25.17,5.93-1.59,1.69-4.25,1.76-5.93.17-1.68-1.59-1.76-4.25-.17-5.93Z"/><path class="cls-1" d="M1282.69,374.1c1.29-1.64,3.66-1.93,5.31-.64,1.64,1.29,1.93,3.66.64,5.31-1.29,1.64-3.66,1.93-5.31.64-1.64-1.29-1.93-3.66-.64-5.31Z"/><path class="cls-1" d="M1260,358.32c1.02-1.58,3.13-2.04,4.71-1.02,1.58,1.02,2.04,3.13,1.02,4.71-1.02,1.58-3.13,2.04-4.71,1.02-1.58-1.02-2.04-3.13-1.02-4.71Z"/><path class="cls-1" d="M1235.91,344.59c.79-1.51,2.66-2.09,4.16-1.3,1.51.79,2.09,2.65,1.3,4.16-.79,1.51-2.65,2.09-4.16,1.3-1.51-.79-2.09-2.65-1.3-4.16Z"/><path class="cls-1" d="M1210.61,333.06c.59-1.42,2.22-2.1,3.64-1.51,1.42.59,2.1,2.22,1.51,3.64-.59,1.42-2.22,2.1-3.64,1.5-1.42-.59-2.1-2.22-1.51-3.64Z"/><path class="cls-1" d="M1184.31,323.88c.42-1.33,1.83-2.06,3.15-1.65,1.33.42,2.06,1.83,1.65,3.15-.42,1.33-1.83,2.06-3.15,1.65-1.33-.42-2.06-1.83-1.65-3.15Z"/><path class="cls-1" d="M1157.26,317.18c.26-1.23,1.46-2.01,2.69-1.75,1.23.26,2.01,1.46,1.75,2.69-.26,1.23-1.46,2.01-2.69,1.75-1.23-.26-2.01-1.46-1.75-2.69Z"/><path class="cls-1" d="M1129.69,312.97c.13-1.12,1.14-1.93,2.27-1.8,1.12.13,1.93,1.14,1.8,2.27-.13,1.12-1.14,1.93-2.27,1.8-1.12-.13-1.93-1.14-1.8-2.27Z"/><path class="cls-1" d="M1394.07,687.28c-5.72-1.16-9.42-6.74-8.26-12.46,1.16-5.72,6.74-9.42,12.46-8.26,5.72,1.16,9.42,6.74,8.26,12.46-1.16,5.72-6.74,9.42-12.46,8.26Z"/><path class="cls-1" d="M1386.61,713.32c-5.05-1.52-7.91-6.85-6.38-11.89,1.52-5.05,6.85-7.91,11.89-6.39,5.05,1.52,7.91,6.85,6.38,11.89-1.52,5.05-6.85,7.91-11.89,6.39Z"/><path class="cls-1" d="M1376.83,738.69c-4.41-1.78-6.54-6.8-4.76-11.21,1.78-4.41,6.8-6.54,11.21-4.76,4.41,1.78,6.54,6.8,4.76,11.21-1.78,4.41-6.8,6.54-11.21,4.76Z"/><path class="cls-1" d="M1364.76,763.13c-3.81-1.97-5.3-6.66-3.33-10.47,1.97-3.81,6.66-5.3,10.47-3.33,3.81,1.97,5.3,6.66,3.33,10.47-1.97,3.81-6.66,5.3-10.47,3.33Z"/><path class="cls-1" d="M1350.57,786.44c-3.26-2.08-4.21-6.4-2.13-9.66,2.08-3.26,6.4-4.21,9.66-2.13,3.26,2.08,4.21,6.4,2.13,9.66-2.08,3.26-6.4,4.21-9.66,2.13Z"/><path class="cls-1" d="M1334.33,808.43c-2.75-2.14-3.25-6.11-1.11-8.86,2.14-2.75,6.11-3.25,8.86-1.11,2.75,2.14,3.25,6.11,1.11,8.86-2.14,2.75-6.11,3.25-8.86,1.11Z"/><path class="cls-1" d="M1316.13,828.99c-2.31-2.15-2.43-5.76-.28-8.07,2.15-2.31,5.76-2.43,8.07-.28,2.31,2.15,2.43,5.76.28,8.07-2.15,2.31-5.76,2.43-8.07.28Z"/><path class="cls-1" d="M1296.07,847.88c-1.9-2.13-1.71-5.39.42-7.28,2.13-1.9,5.39-1.71,7.28.42,1.9,2.13,1.71,5.39-.42,7.28-2.13,1.9-5.39,1.71-7.28-.42Z"/><path class="cls-1" d="M1274.32,864.91c-1.52-2.07-1.08-4.99,1-6.51,2.07-1.52,4.99-1.08,6.51.99,1.52,2.07,1.08,4.99-.99,6.51-2.07,1.52-4.99,1.08-6.51-1Z"/><path class="cls-1" d="M1251.09,879.92c-1.19-1.99-.55-4.57,1.44-5.76,1.99-1.19,4.57-.55,5.76,1.44,1.19,1.99.55,4.57-1.44,5.76-1.99,1.19-4.57.55-5.76-1.44Z"/><path class="cls-1" d="M1226.56,892.77c-.91-1.88-.12-4.15,1.77-5.06,1.88-.91,4.15-.12,5.06,1.77.91,1.88.12,4.15-1.77,5.06-1.88.91-4.15.12-5.06-1.77Z"/><path class="cls-1" d="M1200.94,903.33c-.66-1.77.24-3.74,2.01-4.4,1.77-.66,3.74.24,4.4,2.01.66,1.77-.24,3.74-2.01,4.39-1.77.66-3.74-.24-4.4-2.01Z"/><path class="cls-1" d="M1174.45,911.54c-.45-1.64.52-3.34,2.17-3.78,1.64-.45,3.34.52,3.78,2.17.45,1.64-.52,3.34-2.17,3.78-1.64.45-3.34-.52-3.78-2.17Z"/><path class="cls-1" d="M1147.3,917.33c-.27-1.51.74-2.96,2.26-3.22,1.51-.27,2.96.74,3.22,2.26.27,1.51-.74,2.95-2.26,3.22-1.51.27-2.95-.74-3.22-2.26Z"/><path class="cls-1" d="M1119.71,920.65c-.12-1.38.91-2.6,2.29-2.71,1.38-.12,2.6.91,2.71,2.29.12,1.38-.91,2.6-2.29,2.71-1.38.12-2.6-.91-2.71-2.29Z"/><path class="cls-1" d="M1091.9,921.45c.01-1.25,1.03-2.26,2.29-2.25,1.25.01,2.26,1.03,2.25,2.29,0,1.25-1.03,2.26-2.29,2.25-1.25-.01-2.26-1.03-2.25-2.29Z"/><path class="cls-1" d="M1064.09,919.7c.12-1.12,1.12-1.94,2.25-1.82,1.12.12,1.94,1.12,1.82,2.25-.12,1.12-1.12,1.94-2.25,1.82-1.12-.12-1.94-1.12-1.82-2.25Z"/><path class="cls-1" d="M1419.98,465.75c6.96-2.92,14.96.35,17.88,7.31,2.92,6.95-.35,14.96-7.31,17.88-6.95,2.92-14.96-.35-17.88-7.31-2.92-6.95.35-14.96,7.31-17.88Z"/><path class="cls-1" d="M1405.42,437.83c6.01-3.21,13.49-.94,16.7,5.08,3.21,6.01.93,13.49-5.08,16.7-6.01,3.21-13.49.93-16.7-5.08-3.21-6.01-.93-13.49,5.08-16.7Z"/><path class="cls-1" d="M1388.37,411.19c5.14-3.39,12.06-1.97,15.44,3.17,3.39,5.14,1.97,12.06-3.17,15.44-5.14,3.39-12.06,1.97-15.44-3.17-3.39-5.14-1.97-12.06,3.17-15.44Z"/><path class="cls-1" d="M1368.93,386.06c4.34-3.47,10.68-2.77,14.15,1.57,3.47,4.34,2.77,10.67-1.57,14.15-4.34,3.47-10.67,2.77-14.15-1.57-3.47-4.34-2.77-10.68,1.57-14.15Z"/><path class="cls-1" d="M1347.24,362.74c3.61-3.48,9.35-3.38,12.83.22,3.48,3.61,3.38,9.35-.22,12.83-3.61,3.48-9.35,3.38-12.83-.22-3.48-3.6-3.38-9.35.22-12.83Z"/><path class="cls-1" d="M1323.54,341.41c2.94-3.42,8.1-3.8,11.52-.86,3.42,2.95,3.8,8.1.86,11.52-2.95,3.42-8.1,3.8-11.52.86-3.42-2.94-3.8-8.1-.86-11.52Z"/><path class="cls-1" d="M1298.05,322.32c2.35-3.31,6.93-4.08,10.24-1.74,3.31,2.35,4.08,6.93,1.74,10.24-2.35,3.31-6.93,4.08-10.24,1.74-3.31-2.35-4.08-6.93-1.74-10.24Z"/><path class="cls-1" d="M1270.88,305.47c1.85-3.17,5.92-4.25,9.1-2.4,3.17,1.85,4.25,5.92,2.4,9.1-1.85,3.17-5.92,4.25-9.1,2.4-3.17-1.85-4.25-5.92-2.4-9.1Z"/><path class="cls-1" d="M1242.16,291.04c1.41-3.01,4.99-4.31,8-2.91,3.01,1.41,4.31,4.99,2.91,8-1.41,3.01-4.99,4.31-8,2.91-3.01-1.41-4.31-4.99-2.9-8Z"/><path class="cls-1" d="M1212.13,279.27c1.01-2.83,4.13-4.3,6.95-3.29,2.83,1.01,4.3,4.13,3.29,6.95-1.01,2.83-4.13,4.3-6.96,3.29-2.83-1.01-4.3-4.13-3.29-6.95Z"/><path class="cls-1" d="M1181.09,270.25c.67-2.63,3.35-4.21,5.97-3.54,2.63.67,4.21,3.35,3.54,5.97-.67,2.63-3.35,4.21-5.97,3.54-2.62-.67-4.21-3.35-3.54-5.97Z"/><path class="cls-1" d="M1149.33,264.08c.38-2.41,2.65-4.06,5.07-3.67,2.41.39,4.06,2.65,3.67,5.07-.39,2.41-2.65,4.06-5.07,3.67-2.41-.38-4.06-2.65-3.67-5.07Z"/><path class="cls-1" d="M1117.13,260.83c.15-2.2,2.05-3.86,4.24-3.72,2.2.15,3.86,2.05,3.72,4.24-.15,2.2-2.05,3.86-4.24,3.72-2.2-.15-3.86-2.05-3.72-4.24Z"/><path class="cls-1" d="M1084.76,260.51c-.05-1.99,1.52-3.64,3.5-3.69,1.99-.05,3.64,1.52,3.69,3.5.05,1.99-1.52,3.64-3.51,3.69-1.98.05-3.64-1.52-3.69-3.5Z"/><path class="cls-1" d="M1052.49,263.12c-.21-1.78,1.07-3.39,2.85-3.6,1.78-.21,3.39,1.07,3.6,2.85.21,1.78-1.07,3.39-2.85,3.6-1.78.21-3.39-1.07-3.6-2.85Z"/><path class="cls-1" d="M1020.56,268.65c-.33-1.58.68-3.13,2.27-3.47,1.58-.33,3.13.68,3.47,2.27.33,1.58-.68,3.13-2.27,3.47-1.58.33-3.13-.68-3.46-2.27Z"/><path class="cls-1" d="M989.22,277.06c-.43-1.4.36-2.87,1.76-3.3,1.4-.43,2.87.36,3.3,1.76.43,1.4-.36,2.87-1.76,3.3-1.4.43-2.87-.36-3.3-1.76Z"/><path class="cls-1" d="M958.72,288.3c-.5-1.22.09-2.61,1.31-3.11,1.22-.5,2.61.09,3.11,1.31.5,1.22-.09,2.61-1.31,3.11-1.22.5-2.61-.09-3.11-1.31Z"/><path class="cls-1" d="M1440.29,520.8c-6.49,2.05-13.4-1.55-15.45-8.04-2.05-6.49,1.55-13.4,8.04-15.45,6.49-2.05,13.4,1.55,15.45,8.04,2.05,6.49-1.55,13.4-8.04,15.45Z"/><path class="cls-1" d="M1447.39,551.52c-6,1.3-11.91-2.5-13.21-8.5-1.3-6,2.5-11.91,8.5-13.21,6-1.3,11.91,2.5,13.21,8.5,1.3,6-2.5,11.91-8.5,13.21Z"/><path class="cls-1" d="M1451.77,582.86c-5.5.68-10.5-3.23-11.17-8.73-.68-5.49,3.23-10.5,8.72-11.17,5.5-.68,10.5,3.23,11.18,8.72.68,5.5-3.23,10.5-8.73,11.17Z"/><path class="cls-1" d="M1453.37,614.58c-5,.16-9.18-3.77-9.33-8.77-.16-5,3.77-9.18,8.76-9.33,5-.16,9.18,3.77,9.33,8.77.16,5-3.77,9.18-8.76,9.33Z"/><path class="cls-1" d="M1452.11,646.44c-4.51-.28-7.94-4.15-7.66-8.66.28-4.51,4.15-7.94,8.66-7.66,4.51.28,7.94,4.15,7.67,8.66-.28,4.51-4.15,7.94-8.66,7.66Z"/><path class="cls-1" d="M1448,678.18c-4.03-.62-6.8-4.4-6.18-8.43.62-4.03,4.4-6.8,8.43-6.18,4.03.62,6.8,4.4,6.18,8.43-.62,4.03-4.4,6.8-8.43,6.18Z"/><path class="cls-1" d="M1441.03,709.54c-3.58-.89-5.75-4.52-4.86-8.09.89-3.58,4.52-5.75,8.09-4.86,3.58.89,5.75,4.52,4.86,8.09-.89,3.58-4.52,5.75-8.1,4.86Z"/><path class="cls-1" d="M1431.19,740.2c-3.14-1.11-4.79-4.55-3.68-7.69,1.1-3.14,4.55-4.79,7.68-3.68,3.14,1.1,4.79,4.55,3.68,7.69-1.1,3.14-4.55,4.79-7.69,3.68Z"/><path class="cls-1" d="M1418.6,769.89c-2.73-1.26-3.92-4.48-2.66-7.21,1.26-2.73,4.48-3.92,7.21-2.66,2.73,1.26,3.92,4.48,2.66,7.21-1.26,2.72-4.49,3.92-7.21,2.66Z"/><path class="cls-1" d="M1403.38,798.31c-2.34-1.35-3.14-4.34-1.8-6.68,1.35-2.34,4.34-3.15,6.68-1.8,2.34,1.35,3.14,4.34,1.8,6.68-1.35,2.34-4.34,3.14-6.68,1.8Z"/><path class="cls-1" d="M1385.69,825.18c-1.98-1.4-2.46-4.14-1.06-6.13,1.4-1.98,4.14-2.46,6.13-1.06,1.98,1.4,2.46,4.14,1.06,6.13-1.4,1.98-4.14,2.46-6.13,1.06Z"/><path class="cls-1" d="M1365.64,850.45c-1.68-1.42-1.88-3.94-.46-5.61,1.43-1.68,3.94-1.88,5.62-.46,1.68,1.42,1.88,3.94.46,5.61-1.43,1.68-3.94,1.88-5.62.46Z"/><path class="cls-1" d="M1343.27,873.88c-1.39-1.43-1.36-3.71.07-5.1,1.43-1.39,3.71-1.36,5.1.07,1.39,1.43,1.36,3.71-.07,5.1-1.43,1.39-3.71,1.36-5.1-.07Z"/><path class="cls-1" d="M1318.78,895.24c-1.13-1.4-.92-3.45.48-4.58,1.4-1.13,3.45-.92,4.58.48,1.13,1.4.92,3.45-.48,4.58-1.4,1.13-3.45.92-4.58-.48Z"/><path class="cls-1" d="M1292.42,914.31c-.9-1.35-.54-3.17.8-4.08,1.35-.9,3.17-.54,4.08.81.9,1.35.54,3.17-.81,4.08-1.35.9-3.17.54-4.08-.8Z"/><path class="cls-1" d="M1264.4,930.86c-.7-1.29-.22-2.89,1.07-3.59,1.29-.7,2.9-.22,3.59,1.07.7,1.29.22,2.89-1.07,3.59-1.29.7-2.9.22-3.59-1.07Z"/><path class="cls-1" d="M1234.99,944.78c-.51-1.22.06-2.62,1.27-3.13,1.21-.51,2.62.05,3.13,1.27.51,1.22-.05,2.62-1.27,3.13-1.22.51-2.62-.06-3.13-1.27Z"/><text class="cls-2" transform="translate(260.6 341.95)"><tspan x="0" y="0">E</tspan><tspan class="cls-6" x="22.6" y="0">x</tspan><tspan x="44.42" y="0">ecution</tspan><tspan x="15.72" y="44.26">S</tspan><tspan class="cls-15" x="40.29" y="44.26">t</tspan><tspan class="cls-3" x="55.2" y="44.26">anda</tspan><tspan class="cls-12" x="146.99" y="44.26">r</tspan><tspan x="161.83" y="44.26">d</tspan></text><text class="cls-2" transform="translate(1430.36 315)"><tspan class="cls-13" x="0" y="0">R</tspan><tspan x="24.28" y="0">ole </tspan><tspan class="cls-13" x="87.96" y="0">R</tspan><tspan class="cls-17" x="112.24" y="0">e</tspan><tspan class="cls-3" x="134.97" y="0">adiness</tspan><tspan class="cls-5" x="0" y="44.26">P</tspan><tspan x="23.32" y="44.26">a</tspan><tspan class="cls-15" x="45.33" y="44.26">t</tspan><tspan x="60.25" y="44.26">h</tspan></text><text class="cls-2" transform="translate(1527.65 584.06)"><tspan class="cls-9" x="0" y="0">W</tspan><tspan x="38.11" y="0">o</tspan><tspan class="cls-14" x="61.17" y="0">r</tspan><tspan class="cls-3" x="77.73" y="0">kfl</tspan><tspan class="cls-13" x="126.58" y="0">o</tspan><tspan x="149.27" y="0">w</tspan><tspan class="cls-4" x="0" y="44.26">T</tspan><tspan x="23.23" y="44.26">rigger</tspan></text><text class="cls-2" transform="translate(214.16 584.06)"><tspan x="0" y="0">L</tspan><tspan class="cls-17" x="20.86" y="0">e</tspan><tspan class="cls-3" x="43.59" y="0">ader</tspan><tspan class="cls-13" x="-147.13" y="44.26">R</tspan><tspan class="cls-3" x="-122.85" y="44.26">ein</tspan><tspan class="cls-8" x="-65.61" y="44.26">f</tspan><tspan x="-50.59" y="44.26">o</tspan><tspan class="cls-12" x="-27.54" y="44.26">r</tspan><tspan x="-12.7" y="44.26">cement</tspan></text><text class="cls-2" transform="translate(239.19 877.21)"><tspan x="0" y="0">P</tspan><tspan class="cls-11" x="24.21" y="0">r</tspan><tspan x="39.05" y="0">oof </tspan><tspan class="cls-16" x="108.06" y="0">C</tspan><tspan class="cls-7" x="136.05" y="0">y</tspan><tspan x="158.89" y="0">cle</tspan></text><text class="cls-2" transform="translate(1430.36 877.21)"><tspan class="cls-10" x="0" y="0">A</tspan><tspan x="27.75" y="0">doption Signal</tspan></text></svg>