<?xml version="1.0" encoding="UTF-8"?><svg id="Layer_1" xmlns="http://www.w3.org/2000/svg" viewBox="0 0 1600 1200"><defs><style>.cls-1{fill:#819b84;}.cls-2{fill:#dbe8e1;font-family:Inter-Light, Inter;font-size:38.82px;font-variation-settings:'opsz' 14, 'wght' 300;font-weight:300;}.cls-3{letter-spacing:0em;}.cls-4{letter-spacing:-.08em;}.cls-5{letter-spacing:-.03em;}.cls-6{letter-spacing:-.01em;}.cls-7{letter-spacing:0em;}.cls-8{letter-spacing:.02em;}.cls-9{letter-spacing:0em;}.cls-10{letter-spacing:0em;}</style></defs><path class="cls-1" d="M1050.56,421.08c-5.94,3.17-13.34.92-16.51-5.02-3.17-5.94-.92-13.33,5.02-16.51,5.95-3.17,13.34-.92,16.51,5.02,3.17,5.94.92,13.34-5.02,16.51Z"/><path class="cls-1" d="M694.84,769.52c-.69-2.15.49-4.45,2.64-5.14,2.15-.69,4.45.49,5.14,2.64.69,2.15-.49,4.45-2.64,5.14-2.15.69-4.45-.49-5.14-2.64Z"/><path class="cls-1" d="M1016.92,485.31c-.93-1.15-.76-2.85.4-3.78,1.15-.93,2.85-.76,3.78.4.93,1.15.76,2.85-.4,3.78-1.15.93-2.85.76-3.78-.4Z"/><path class="cls-1" d="M675.05,521.59c3.9,3.31,4.37,9.15,1.06,13.05-3.31,3.9-9.16,4.37-13.05,1.06-3.9-3.31-4.37-9.16-1.06-13.05,3.31-3.9,9.16-4.37,13.05-1.06Z"/><path class="cls-1" d="M1009.54,651.54c-6.33,3.38-14.2.98-17.57-5.35-3.38-6.33-.98-14.2,5.34-17.57,6.33-3.38,14.2-.98,17.57,5.34,3.38,6.33.98,14.2-5.35,17.57Z"/><path class="cls-1" d="M821.27,344.25c-6.33,3.38-14.2.98-17.57-5.35-3.38-6.33-.98-14.2,5.34-17.57,6.33-3.38,14.2-.98,17.57,5.34,3.38,6.33.98,14.2-5.35,17.57Z"/><path class="cls-1" d="M512.98,160.13c6.83-2.15,14.1,1.64,16.26,8.46,2.15,6.83-1.64,14.11-8.46,16.26-6.83,2.15-14.11-1.64-16.26-8.46-2.15-6.83,1.64-14.1,8.46-16.26Z"/><path class="cls-1" d="M901.9,281.16c.8,1.87-.07,4.03-1.94,4.83-1.87.8-4.03-.07-4.83-1.94-.8-1.87.07-4.03,1.94-4.83,1.87-.8,4.03.07,4.83,1.94Z"/><path class="cls-1" d="M1095.6,542.04c.93,1.16.76,2.85-.4,3.78-1.15.94-2.85.76-3.78-.4-.93-1.15-.76-2.85.4-3.78,1.15-.93,2.85-.76,3.78.4Z"/><path class="cls-1" d="M413.7,559.94c.93.79,1.04,2.19.25,3.11-.79.93-2.19,1.04-3.11.25-.93-.79-1.04-2.19-.25-3.11.79-.93,2.19-1.04,3.12-.25Z"/><path class="cls-1" d="M999.77,627.97c.86.5,1.15,1.6.65,2.46-.5.86-1.6,1.15-2.46.65-.86-.5-1.15-1.6-.65-2.46.5-.86,1.6-1.15,2.46-.65Z"/><path class="cls-1" d="M1004.84,220.74c.76.27,1.15,1.1.89,1.85-.27.76-1.1,1.15-1.85.89-.76-.27-1.15-1.1-.89-1.85.27-.76,1.1-1.15,1.85-.89Z"/><path class="cls-1" d="M658.91,604.14c1.01-1.77,3.26-2.39,5.03-1.39,1.77,1.01,2.39,3.26,1.39,5.03-1.01,1.77-3.26,2.39-5.03,1.38-1.77-1.01-2.39-3.26-1.39-5.03Z"/><path class="cls-1" d="M997.46,380.41c1.01-1.77,3.26-2.39,5.03-1.39,1.77,1.01,2.39,3.26,1.39,5.03-1.01,1.77-3.26,2.39-5.03,1.38-1.77-1.01-2.39-3.26-1.39-5.03Z"/><path class="cls-1" d="M1134.17,535.38c4.43,2.56,5.94,8.22,3.38,12.65-2.56,4.43-8.22,5.94-12.65,3.38-4.43-2.56-5.94-8.22-3.38-12.65,2.56-4.43,8.22-5.94,12.65-3.38Z"/><path class="cls-1" d="M1035.25,749.54c3.65.92,5.86,4.61,4.94,8.26-.92,3.65-4.61,5.86-8.26,4.94-3.65-.92-5.86-4.61-4.95-8.26.92-3.65,4.61-5.86,8.26-4.95Z"/><path class="cls-1" d="M965.64,808.09c2.76.08,5.07-2.09,5.15-4.85.08-2.76-2.09-5.07-4.85-5.15-2.76-.08-5.07,2.09-5.15,4.85-.08,2.76,2.09,5.07,4.85,5.15Z"/><path class="cls-1" d="M822.78,863.08c1.46-.78,3.28-.23,4.05,1.23.78,1.46.23,3.27-1.23,4.05-1.46.78-3.27.23-4.05-1.23-.78-1.46-.23-3.27,1.23-4.05Z"/><path class="cls-1" d="M457.82,271.78c1.05-.84,2.59-.67,3.43.38.84,1.05.67,2.59-.38,3.43-1.05.84-2.59.67-3.43-.38-.84-1.05-.67-2.59.38-3.43Z"/><path class="cls-1" d="M847.34,682.68c.71-.83,1.97-.93,2.8-.22.83.71.93,1.97.22,2.8-.71.83-1.97.93-2.8.22-.83-.71-.93-1.97-.22-2.8Z"/><path class="cls-1" d="M581.3,288.44c-3.22-3.31-3.15-8.6.16-11.82,3.31-3.22,8.6-3.15,11.82.16,3.22,3.31,3.15,8.6-.16,11.82-3.31,3.22-8.6,3.15-11.82-.16Z"/><path class="cls-1" d="M622.49,917.59c-2.62-3.24-2.13-7.99,1.11-10.61,3.24-2.62,7.99-2.13,10.61,1.11,2.62,3.24,2.12,7.99-1.11,10.61-3.24,2.62-7.99,2.13-10.61-1.11Z"/><path class="cls-1" d="M828.51,952.84c6.76.73,11.66,6.81,10.93,13.57-.73,6.77-6.81,11.66-13.57,10.93-6.77-.73-11.66-6.81-10.93-13.57.73-6.77,6.81-11.66,13.57-10.93Z"/><path class="cls-1" d="M730.92,209.56c4.93-.83,9.59,2.48,10.43,7.41.83,4.93-2.48,9.6-7.41,10.43-4.93.83-9.6-2.48-10.43-7.41-.84-4.92,2.48-9.59,7.41-10.43Z"/><path class="cls-1" d="M941.65,478.56c3.32-1.58,7.29-.16,8.87,3.16,1.58,3.32.16,7.29-3.16,8.87-3.32,1.58-7.29.16-8.87-3.16-1.58-3.32-.16-7.29,3.16-8.87Z"/><path class="cls-1" d="M1042.73,284.53c-4.01-2.07-5.58-7.01-3.5-11.01,2.07-4.01,7-5.58,11.01-3.5,4.01,2.07,5.58,7,3.5,11.01-2.07,4.01-7,5.58-11.01,3.5Z"/><path class="cls-1" d="M548.69,645.74c-3.43-2.19-4.43-6.74-2.24-10.17,2.19-3.43,6.74-4.43,10.17-2.24,3.43,2.19,4.43,6.74,2.24,10.16-2.19,3.43-6.74,4.43-10.16,2.24Z"/><path class="cls-1" d="M765.35,520.74c7.32-3.07,15.74.37,18.82,7.69,3.07,7.32-.37,15.74-7.69,18.82-7.32,3.07-15.74-.37-18.82-7.69-3.07-7.32.37-15.74,7.69-18.82Z"/><path class="cls-1" d="M730.42,670.12c7.32-3.07,15.74.37,18.82,7.69,3.07,7.32-.37,15.74-7.69,18.82-7.32,3.07-15.74-.37-18.82-7.69-3.07-7.32.37-15.74,7.69-18.82Z"/><path class="cls-1" d="M445.25,793.59c-6.83,2.15-14.1-1.63-16.26-8.46-2.15-6.83,1.64-14.11,8.46-16.26,6.83-2.15,14.11,1.64,16.26,8.46,2.15,6.83-1.64,14.11-8.46,16.26Z"/><path class="cls-1" d="M365.18,728.5c-5.26.17-9.66-3.97-9.82-9.22-.17-5.26,3.96-9.66,9.22-9.82,5.26-.16,9.66,3.97,9.82,9.22.17,5.26-3.96,9.66-9.22,9.82Z"/><path class="cls-1" d="M1025.6,810.78c-4.25-.66-7.16-4.63-6.5-8.87.66-4.24,4.63-7.15,8.87-6.5,4.24.66,7.16,4.63,6.5,8.87-.65,4.25-4.63,7.15-8.87,6.5Z"/><path class="cls-1" d="M892.24,575.62c-1.07-1.27-2.97-1.43-4.24-.35-1.27,1.07-1.43,2.97-.35,4.24,1.07,1.27,2.97,1.43,4.24.35,1.27-1.07,1.43-2.97.35-4.24Z"/><path class="cls-1" d="M853.73,506.05c-4.2-1.92-6.04-6.88-4.11-11.08,1.92-4.2,6.88-6.04,11.08-4.11,4.2,1.92,6.04,6.88,4.11,11.08-1.92,4.2-6.88,6.04-11.08,4.11Z"/><path class="cls-1" d="M348.27,474.54c-6.47-2.11-10-9.07-7.89-15.53,2.11-6.47,9.07-10,15.54-7.89,6.47,2.11,10,9.07,7.89,15.54-2.11,6.47-9.07,10-15.53,7.89Z"/><path class="cls-1" d="M707.24,410.32c-6.47-2.11-10-9.07-7.89-15.53,2.11-6.47,9.07-10,15.54-7.89,6.47,2.11,10,9.07,7.89,15.54-2.11,6.47-9.07,10-15.53,7.89Z"/><path class="cls-1" d="M970.6,873.46c-.21-3.69,2.61-6.85,6.29-7.06,3.69-.21,6.85,2.61,7.06,6.29.21,3.69-2.61,6.85-6.29,7.06-3.69.21-6.85-2.61-7.06-6.29Z"/><path class="cls-1" d="M960.15,317.54c6.47-2.11,10-9.07,7.89-15.54-2.11-6.47-9.07-10-15.54-7.89-6.47,2.11-10,9.07-7.89,15.54,2.11,6.47,9.07,10,15.54,7.89Z"/><path class="cls-1" d="M871.18,708.97c2.1,2.8,6.07,3.36,8.87,1.25,2.8-2.1,3.36-6.08,1.25-8.87-2.1-2.8-6.08-3.36-8.87-1.25-2.8,2.1-3.36,6.08-1.25,8.87Z"/><path class="cls-1" d="M876.4,229.92c-2.18-2.96-1.55-7.14,1.41-9.32,2.96-2.19,7.14-1.55,9.32,1.41,2.18,2.96,1.55,7.14-1.41,9.32-2.96,2.19-7.14,1.55-9.32-1.41Z"/><path class="cls-1" d="M920.19,762.39c-.71,2.76-3.52,4.43-6.28,3.72-2.76-.71-4.43-3.52-3.72-6.29.71-2.76,3.52-4.43,6.28-3.72,2.76.71,4.43,3.52,3.72,6.28Z"/><path class="cls-1" d="M910.4,515.09c1.07,1.27,2.97,1.43,4.24.35,1.27-1.07,1.43-2.97.35-4.24-1.07-1.27-2.97-1.43-4.24-.35-1.27,1.07-1.43,2.97-.35,4.24Z"/><path class="cls-1" d="M882.18,403.88c.55.95,1.76,1.28,2.71.73.95-.55,1.28-1.76.73-2.71-.55-.95-1.76-1.28-2.71-.73-.95.55-1.28,1.76-.73,2.71Z"/><path class="cls-1" d="M462.05,372.89c-3.65.92-5.86,4.61-4.94,8.26.92,3.65,4.61,5.86,8.26,4.94,3.65-.92,5.86-4.61,4.95-8.26-.92-3.65-4.61-5.86-8.26-4.95Z"/><path class="cls-1" d="M674.53,486.43c-1.46-.78-3.28-.23-4.05,1.23-.78,1.46-.23,3.27,1.23,4.05,1.46.78,3.27.23,4.05-1.23.78-1.46.23-3.27-1.23-4.05Z"/><path class="cls-1" d="M874.81,540.94c2.62-3.24,2.13-7.99-1.11-10.61-3.24-2.62-7.99-2.13-10.61,1.11-2.62,3.24-2.12,7.99,1.11,10.61,3.24,2.62,7.99,2.13,10.61-1.11Z"/><path class="cls-1" d="M471.71,434.13c4.25-.66,7.16-4.63,6.5-8.87-.66-4.24-4.63-7.15-8.87-6.5-4.24.66-7.16,4.63-6.5,8.87.65,4.25,4.63,7.15,8.87,6.5Z"/><path class="cls-1" d="M526.7,496.81c.21-3.69-2.61-6.85-6.29-7.06-3.69-.21-6.85,2.61-7.06,6.29-.21,3.69,2.61,6.85,6.29,7.06,3.69.21,6.85-2.61,7.06-6.29Z"/><path class="cls-1" d="M577.12,385.74c.71,2.76,3.52,4.43,6.28,3.72,2.76-.71,4.43-3.52,3.72-6.29-.71-2.76-3.52-4.43-6.28-3.72-2.76.71-4.43,3.52-3.72,6.28Z"/><path class="cls-1" d="M600.27,792.64c.81.37,1.17,1.33.8,2.14-.37.81-1.33,1.17-2.14.8-.81-.37-1.17-1.33-.8-2.14.37-.81,1.33-1.17,2.14-.8Z"/><path class="cls-1" d="M503.74,935.34c-.97-3.56,1.14-7.24,4.7-8.21,3.56-.97,7.24,1.14,8.21,4.7.97,3.56-1.14,7.24-4.7,8.21-3.56.97-7.24-1.14-8.21-4.7Z"/><path class="cls-1" d="M678.29,873.08c4.63,3.27,5.73,9.67,2.47,14.3-3.27,4.63-9.67,5.74-14.3,2.47-4.63-3.27-5.74-9.67-2.47-14.3,3.27-4.63,9.67-5.74,14.3-2.47Z"/><path class="cls-1" d="M467.25,321.3c.97,3.56-1.14,7.24-4.7,8.21-3.56.97-7.24-1.14-8.21-4.7-.97-3.56,1.14-7.24,4.7-8.21,3.56-.97,7.24,1.14,8.21,4.7Z"/><path class="cls-1" d="M689.58,402.95c-.77.59-1.88.44-2.46-.34-.59-.77-.43-1.88.34-2.46.77-.59,1.87-.43,2.46.34.59.77.43,1.88-.34,2.46Z"/><path class="cls-1" d="M371.07,815.22c-.83,1.59-2.79,2.2-4.38,1.37-1.59-.83-2.2-2.79-1.37-4.38.83-1.59,2.79-2.2,4.38-1.37,1.59.83,2.2,2.79,1.37,4.38Z"/><path class="cls-1" d="M954.8,740.11c2.11,3.5.98,8.04-2.52,10.14-3.5,2.11-8.04.98-10.14-2.52-2.11-3.5-.98-8.04,2.52-10.15,3.49-2.11,8.04-.98,10.14,2.52Z"/><path class="cls-1" d="M1062.46,706.52c4.63,3.27,5.73,9.67,2.47,14.3-3.27,4.63-9.67,5.74-14.3,2.47-4.63-3.27-5.74-9.67-2.47-14.3,3.27-4.63,9.67-5.74,14.3-2.47Z"/><path class="cls-1" d="M1119.69,715.34c-4.01-2.07-5.58-7.01-3.5-11.01,2.07-4.01,7-5.58,11.01-3.5,4.01,2.07,5.58,7,3.5,11.01-2.07,4.01-7,5.58-11.01,3.5Z"/><path class="cls-1" d="M859.08,186.7c.15-2.31,2.15-4.06,4.47-3.91,2.32.15,4.07,2.15,3.91,4.47-.15,2.31-2.15,4.06-4.47,3.91-2.31-.15-4.07-2.15-3.91-4.47Z"/><path class="cls-1" d="M439.52,285.21c1.76,4.72-.64,9.97-5.36,11.73-4.72,1.76-9.97-.64-11.73-5.36-1.76-4.72.64-9.97,5.36-11.73,4.72-1.76,9.97.64,11.73,5.36Z"/><path class="cls-1" d="M578.92,277.44c-.52,2.67-3.1,4.41-5.77,3.89-2.67-.52-4.41-3.1-3.89-5.76.52-2.67,3.1-4.41,5.77-3.89,2.67.52,4.41,3.1,3.89,5.77Z"/><path class="cls-1" d="M455.75,991.11c-.5,3.13-3.44,5.26-6.56,4.76-3.13-.5-5.26-3.44-4.76-6.56.5-3.13,3.44-5.26,6.56-4.76,3.13.5,5.26,3.44,4.76,6.56Z"/><path class="cls-1" d="M817.44,742.88c1.24-2.18,4.01-2.94,6.19-1.71,2.18,1.24,2.94,4.01,1.71,6.19-1.24,2.18-4.01,2.94-6.19,1.7-2.18-1.24-2.94-4.01-1.71-6.19Z"/><path class="cls-1" d="M1143.31,710.65c2.55,1.62,3.3,5.01,1.68,7.55-1.62,2.55-5.01,3.3-7.55,1.68-2.55-1.62-3.3-5-1.68-7.55,1.62-2.55,5.01-3.3,7.56-1.68Z"/><path class="cls-1" d="M1303.13,665.59c-7.42-1.5-12.21-8.73-10.71-16.15,1.5-7.42,8.73-12.21,16.14-10.71,7.42,1.5,12.21,8.73,10.71,16.14-1.5,7.42-8.73,12.21-16.14,10.71Z"/><path class="cls-1" d="M819.22,123.24c-.43-2.05.88-4.06,2.94-4.49,2.05-.43,4.06.89,4.49,2.93.43,2.05-.89,4.06-2.94,4.49-2.05.43-4.06-.89-4.49-2.94Z"/><path class="cls-1" d="M730.74,966.39c1.51-4.06-.56-8.58-4.63-10.09-4.06-1.51-8.58.56-10.09,4.63-1.51,4.06.56,8.58,4.63,10.09,4.06,1.51,8.58-.56,10.09-4.63Z"/><path class="cls-1" d="M592.78,686.64c1.81,3.03.83,6.96-2.2,8.77-3.03,1.81-6.96.83-8.77-2.2-1.81-3.03-.83-6.96,2.2-8.77,3.03-1.81,6.96-.83,8.77,2.2Z"/><path class="cls-1" d="M1168.14,388.09c-.91,5.24,2.61,10.23,7.85,11.14,5.24.91,10.23-2.61,11.14-7.85.91-5.24-2.61-10.23-7.85-11.14-5.24-.91-10.23,2.61-11.14,7.85Z"/><text class="cls-2" transform="translate(593.68 172.9)"><tspan x="0" y="0">PDFs</tspan></text><text class="cls-2" transform="translate(1066.8 842.37)"><tspan x="0" y="0">One-O</tspan><tspan class="cls-5" x="121.82" y="0">f</tspan><tspan class="cls-3" x="134.01" y="0">f Demos </tspan></text><text class="cls-2" transform="translate(1090.82 313.93)"><tspan class="cls-6" x="0" y="0">R</tspan><tspan class="cls-3" x="24.11" y="0">ep</tspan><tspan class="cls-9" x="69.98" y="0">e</tspan><tspan x="92.86" y="0">a</tspan><tspan class="cls-7" x="114.18" y="0">t</tspan><tspan class="cls-3" x="125.44" y="0">ed</tspan><tspan x="0" y="46.58">Explanations</tspan></text><text class="cls-2" transform="translate(582.13 1068.13)"><tspan class="cls-4" x="0" y="0">T</tspan><tspan class="cls-10" x="21.65" y="0">e</tspan><tspan x="44.52" y="0">am Messages</tspan></text><text class="cls-2" transform="translate(229.85 557.88)"><tspan x="0" y="0">Manager</tspan><tspan x="0" y="46.58">Memo</tspan><tspan class="cls-8" x="114.34" y="46.58">r</tspan><tspan x="128.89" y="46.58">y</tspan></text></svg>