<?xml version="1.0" encoding="UTF-8"?>
<svg id="Layer_1" xmlns="http://www.w3.org/2000/svg" version="1.1" viewBox="0 0 1111.5 620.9">
  <!-- Generator: Adobe Illustrator 30.2.1, SVG Export Plug-In . SVG Version: 2.1.1 Build 1)  -->
  <defs>
    <style>
      .st0 {
        fill: #fff;
      }
    </style>
  </defs>
  <path class="st0" d="M646.3,342c-6.9,67.6-35.1,130.8-81.6,180.8-51.3,55.2-120.9,90-195.8,97.4,1.6,1.5,2.4.2,4.8.4h272.6c0-.1-.1-278.6-.1-278.6ZM639.6,180.9c.8,32-12.1,63.5-45.1,73.2-6.8,2-13.5,3.2-20.8,3.2h-56.9c0,0,0-127.1,0-127.1h27.6c9.7,0,18.1,5.3,23.9,12.9,9.8,12.9,10.8,28.9,10.5,44.3,2.5.2,4.7.6,6.8-.2v-116.7c-2.3-.5-4.5-.3-6.8,0,.2,15.5-.9,35-13.1,45.6-5.6,4.7-12.6,7.1-20,7.2l-28.9.2V10s58.2.2,58.2.2c10.7,0,20.4,2.6,30,6.8,24.3,11.5,35.6,33.3,34.8,59.9,2.3.2,4.4.3,6.8,0V3.1c0,0-217.5,0-217.5,0-.6,2.3-.4,4.4-.1,6.8h29.8c0,.1,0,247.3,0,247.3l-29.8.3c-.2,2.4-.4,4.5.1,6.8h217.5v-83.3c-2.4-.4-4.4-.3-6.8,0ZM301.4,3.1H29.2c0,0,0,267.2,0,267.2,0,3.5,0,6,.5,9.4C44.5,134.3,160.3,18.5,305.6,3.6c-1.5-1.5-2.5-.5-4.3-.4ZM1079.4,257.5l-18-.2L962.3-2.3c-2-.9-3.9-.6-6.1-.1l-86.5,239.3c-4.8,13.3-14.4,21.7-29.2,20.5-.4,2.3-.5,4.7.1,6.9h66.9c.1-2.6.2-4.6,0-6.8l-14.6-.3c-4.2,0-8.6-1.7-11.1-5.3-2.6-3.7-3.1-8.9-1.6-13.4l19.7-58.1h71.7s26.9,77,26.9,77h-29.3c-.2,2.6-.3,4.6.1,6.9h110.2c.2-2.6.2-4.6,0-6.8ZM902.9,173.8l33.2-94.2,32.5,94h-65.7ZM826,116.4c-24.7-15.6-55.9-17.6-83.6-25.7-20.7-6.1-37.8-16.1-37.2-40.4.4-20,12.2-37.4,31.6-43.4,23.7-7.4,49.2,0,65.7,18.5,15.3,17,23.3,38.7,28.6,60.7,2.4.5,4.5.5,7,0V3c-2.5-.4-4.6-.3-6.8,0-.1,6.6-2.2,13.2-9.6,14.1-17.7,2.1-29.8-20.3-68.9-19.8-12.6.1-24.4,2.1-36,6.8-38.9,16-51.1,57.8-42.4,96.1,3.9,17.1,14.3,30.8,29.2,39.7,10,6,20.5,10.1,31.9,13.1l36.6,9.6c21,5.5,43.2,15.6,46.8,39.3,3.8,24.7-6.3,49.6-31.3,58.1-21.8,7.4-45,2.8-62.8-11.6-24.4-19.7-38.7-52.2-45.4-82.2-2.4-.3-4.5-.4-6.9,0v98.2c2.6.4,4.7.5,6.9-.2-.2-7.9,5.6-13.5,13.5-13.2,6.4.2,12.4,2.5,18.5,4.7,10.3,3.7,20.1,7.5,30.7,10.4,39.4,11,82.8.7,102.3-38.2,6.3-12.6,9.3-25.6,10.5-39.5,2.4-28.7-3.3-55.8-28.9-72Z"/>
  <path class="st0" d="M305.6,3.6C160.3,18.5,44.5,134.3,29.7,279.7c-.4-3.4-.4-5.9-.4-9.4V3.2s272.2,0,272.2,0c1.7,0,2.8-1.1,4.3.4Z"/>
  <g>
    <path class="st0" d="M844.4,227.9c-19.5,38.9-63,49.2-102.3,38.2-10.6-3-20.3-6.7-30.7-10.4-6.1-2.2-12.1-4.4-18.5-4.7-8-.3-13.7,5.3-13.5,13.2-2.2.7-4.3.6-6.9.2v-98.2c2.3-.5,4.5-.3,6.8,0,6.7,30,21,62.5,45.4,82.2,17.8,14.4,41.1,19,62.8,11.6,24.9-8.5,35.1-33.4,31.2-58.1-3.7-23.7-25.8-33.8-46.8-39.3l-36.6-9.6c-11.4-3-21.9-7-31.9-13-14.9-8.9-25.3-22.6-29.2-39.7-8.7-38.3,3.5-80.1,42.4-96.1,11.6-4.8,23.4-6.7,36-6.8,39.1-.4,51.2,21.9,68.9,19.8,7.4-.9,9.5-7.5,9.6-14.1,2.2-.3,4.3-.3,6.8,0v83c-2.4.5-4.6.5-7,0-5.3-22-13.3-43.7-28.6-60.7-16.5-18.4-42-25.9-65.7-18.5s-31.1,23.4-31.6,43.4c-.5,24.3,16.5,34.3,37.2,40.4,27.6,8.1,58.9,10.1,83.6,25.8,25.6,16.2,31.3,43.3,28.9,72-1.2,13.9-4.1,26.8-10.5,39.5Z"/>
    <g>
      <path class="st0" d="M578.8,187.4c.3-15.4-.7-31.4-10.5-44.3-5.8-7.6-14.2-12.8-23.9-12.9h-27.6s0,127.2,0,127.2h56.9c7.3-.1,14-1.3,20.8-3.3,33-9.7,45.9-41.2,45.1-73.2,2.4-.3,4.4-.4,6.8,0v83.3s-217.5,0-217.5,0c-.6-2.3-.4-4.4-.1-6.8l29.8-.3V10.1s-29.8-.1-29.8-.1c-.2-2.4-.4-4.5.1-6.8h217.4s0,73.7,0,73.7c-2.4.4-4.5.3-6.8,0,.8-26.6-10.4-48.4-34.8-59.9-9.5-4.2-19.3-6.8-30-6.8l-58.2-.2v113.3s28.9-.2,28.9-.2c7.5,0,14.4-2.5,20-7.2,12.2-10.6,13.3-30.2,13.1-45.6,2.3-.2,4.5-.4,6.8,0v116.7c-2.1.8-4.3.5-6.7.2Z"/>
      <path class="st0" d="M373.8,620.6c-2.4-.2-3.3,1.1-4.8-.4,74.8-7.5,144.5-42.2,195.8-97.4,46.5-50,74.7-113.1,81.6-180.8v278.5c.1,0-272.5.1-272.5.1Z"/>
    </g>
  </g>
  <path class="st0" d="M1079.4,257.5l-18-.2L962.3-2.3c-2-.9-3.9-.6-6.1-.1l-86.5,239.3c-4.8,13.3-14.4,21.7-29.2,20.5-.4,2.3-.5,4.7.1,6.9h66.9c.1-2.6.2-4.6,0-6.8l-14.6-.3c-4.2,0-8.6-1.7-11.1-5.3-2.6-3.7-3.1-8.9-1.6-13.4l19.7-58.1h71.7s26.9,77,26.9,77h-29.3c-.2,2.6-.3,4.6.1,6.9h110.2c.2-2.6.2-4.6,0-6.8ZM902.9,173.8l33.2-94.2,32.5,94h-65.7Z"/>
</svg>