<?xml version="1.0" encoding="UTF-8"?><svg id="Layer_1" xmlns="http://www.w3.org/2000/svg" viewBox="0 0 1800 1200"><defs><style>.cls-1{fill:#dbe8e1;}</style></defs><path class="cls-1" d="M1742.01,318.04H178.96c-13.49,0-26.8,10.6-29.58,23.56L38.52,858.4c-2.78,12.96,5.98,23.56,19.47,23.56h1563.05c13.49,0,26.8-10.6,29.58-23.56l110.86-516.8c2.78-12.96-5.98-23.56-19.47-23.56ZM512.82,524.54c0,5.23-4.25,9.48-9.48,9.48h-92.2v44.66h81.2c5.24,0,9.48,4.25,9.48,9.49v48.4c0,5.24-4.24,9.49-9.48,9.49h-81.2v79.11c0,5.24-4.25,9.48-9.48,9.48h-60.8c-5.24,0-9.49-4.24-9.49-9.48v-250.64c0-5.24,4.25-9.49,9.49-9.49h162.48c5.23,0,9.48,4.25,9.48,9.49v50.01ZM652.7,725.47c0,5.25-4.25,9.49-9.49,9.49h-60.87c-5.25,0-9.5-4.24-9.5-9.49v-250.93c0-5.25,4.25-9.5,9.5-9.5h60.87c5.24,0,9.49,4.25,9.49,9.5v250.93ZM902.16,691.27c-7.92,13.15-19.69,23.73-35.31,31.71-15.61,7.99-35.25,11.98-58.9,11.98-19.1,0-37.53-2.45-55.32-7.37-14.36-3.97-26.67-8.9-36.93-14.78-4.08-2.35-5.88-7.28-4.17-11.66l17.84-45.74c2.06-5.29,8.32-7.59,13.3-4.84,8.36,4.6,17.37,8.46,27.05,11.58,13.34,4.3,26.31,6.46,38.89,6.46,7.37,0,13.18-.55,17.41-1.67,4.23-1.1,7.32-2.7,9.27-4.79,1.95-2.08,2.93-4.61,2.93-7.56,0-4.66-2.28-8.35-6.83-11.06-4.56-2.71-10.58-4.98-18.07-6.83-7.49-1.84-15.68-3.8-24.58-5.89-8.89-2.09-17.84-4.85-26.85-8.29-9.01-3.44-17.25-7.99-24.72-13.65-7.49-5.65-13.51-13.1-18.07-22.31-4.56-9.22-6.83-20.7-6.83-34.47,0-15.97,3.95-30.54,11.87-43.69,7.91-13.15,19.74-23.66,35.47-31.53,15.73-7.86,35.31-11.8,58.74-11.8,15.4,0,30.59,1.85,45.56,5.53,12.12,2.98,23.24,7.26,33.37,12.83,4.08,2.23,5.88,7.14,4.28,11.5l-16.68,45.53c-1.92,5.26-8.01,7.7-13.03,5.2-8-3.98-15.79-7.12-23.4-9.43-10.52-3.19-20.77-4.79-30.75-4.79-7.38,0-13.24.73-17.58,2.21-4.34,1.48-7.43,3.45-9.27,5.91-1.85,2.45-2.77,5.16-2.77,8.1,0,4.43,2.28,7.93,6.84,10.51,4.56,2.58,10.57,4.74,18.05,6.46,7.49,1.72,15.73,3.56,24.73,5.52,9,1.98,17.95,4.67,26.85,8.11,8.89,3.45,17.09,8,24.57,13.65,7.49,5.66,13.51,13.03,18.07,22.12,4.56,9.1,6.84,20.41,6.84,33.92,0,15.74-3.96,30.18-11.88,43.33ZM1082.15,658.28c15.55,0,30.13-6.05,41.01-16.8,3.21-3.18,8.33-3.39,11.9-.63l46.16,35.85c4.19,3.26,4.69,9.37,1.15,13.32-25.57,28.48-61.57,44.63-100.22,44.63-85.15,0-152.11-79.35-130.82-167.98,11.58-48.26,49.41-86.26,97.7-97.7,50.88-12.07,100.89,4.31,133.63,41.04,3.53,3.96,3.01,10.07-1.19,13.31l-46.31,35.71c-3.64,2.81-8.75,2.4-12.03-.84-15.62-15.42-38.82-21.14-61.67-13.24-16.01,5.54-28.64,18.25-34.19,34.24-14.19,40.86,15.96,79.09,54.87,79.09ZM1468.63,640.33h-.16v85.12c0,5.25-4.26,9.51-9.51,9.51h-60.84c-5.25,0-9.51-4.26-9.51-9.51v-85.12h-82.39v85.12c0,5.25-4.26,9.51-9.52,9.51h-60.83c-5.26,0-9.52-4.26-9.52-9.51v-250.9c0-5.26,4.26-9.52,9.52-9.52h60.83c5.26,0,9.52,4.26,9.52,9.52v85.91h82.39v-85.91c0-5.26,4.26-9.52,9.51-9.52h60.84c5.25,0,9.51,4.26,9.51,9.52v85.91h.16v79.87Z"/></svg>