<?xml version="1.0" encoding="UTF-8"?>
<svg id="Layer_1" xmlns="http://www.w3.org/2000/svg" xmlns:xlink="http://www.w3.org/1999/xlink" version="1.1" viewBox="0 0 1920 620.9">
  <!-- Generator: Adobe Illustrator 30.2.1, SVG Export Plug-In . SVG Version: 2.1.1 Build 1)  -->
  <defs>
    <style>
      .st0 {
        fill: url(#linear-gradient2);
      }

      .st1 {
        fill: url(#linear-gradient1);
      }

      .st2 {
        fill: url(#linear-gradient3);
      }

      .st3 {
        fill: url(#linear-gradient4);
      }

      .st4 {
        fill: url(#linear-gradient);
      }

      .st5 {
        fill: #fff;
      }
    </style>
    <linearGradient id="linear-gradient" x1="85.6" y1="387.8" x2="1802.5" y2="290.6" gradientUnits="userSpaceOnUse">
      <stop offset="0" stop-color="#fff"/>
      <stop offset=".5" stop-color="#3a4c39"/>
      <stop offset="1" stop-color="#000"/>
    </linearGradient>
    <linearGradient id="linear-gradient1" x1="84.7" y1="371.2" x2="1801.5" y2="273.9" xlink:href="#linear-gradient"/>
    <linearGradient id="linear-gradient2" x1="83.8" y1="354.6" x2="1800.6" y2="257.4" xlink:href="#linear-gradient"/>
    <linearGradient id="linear-gradient3" x1="83.1" y1="342.2" x2="1799.9" y2="244.9" xlink:href="#linear-gradient"/>
    <linearGradient id="linear-gradient4" x1="82.2" y1="327" x2="1799" y2="229.7" xlink:href="#linear-gradient"/>
  </defs>
  <path class="st5" d="M1885.8,0H164.8c-14.9,0-29.5,11.7-32.6,25.9L10.1,595c-3,14.3,6.6,26,21.5,26h1721c14.9,0,29.5-11.7,32.6-26L1907.2,25.9c3.1-14.3-6.6-25.9-21.5-25.9ZM532.4,227.4c0,5.8-4.7,10.4-10.4,10.4h-101.5v49.2h89.4c5.8,0,10.4,4.7,10.4,10.4v53.3c0,5.8-4.7,10.4-10.4,10.4h-89.4v87.1c0,5.8-4.7,10.4-10.4,10.4h-67c-5.8,0-10.4-4.7-10.4-10.4V172.3c0-5.8,4.7-10.4,10.4-10.4h178.9c5.8,0,10.4,4.7,10.4,10.4v55.1ZM686.4,448.6c0,5.8-4.7,10.5-10.4,10.5h-67c-5.8,0-10.5-4.7-10.5-10.5V172.3c0-5.8,4.7-10.4,10.5-10.4h67c5.8,0,10.4,4.7,10.4,10.4v276.3ZM961,411c-8.7,14.5-21.7,26.1-38.9,34.9-17.2,8.8-38.8,13.2-64.9,13.2s-41.3-2.7-60.9-8.1c-15.8-4.4-29.3-9.8-40.7-16.3-4.5-2.6-6.5-8-4.6-12.9l19.6-50.4c2.3-5.8,9.2-8.4,14.6-5.3,9.2,5.1,19.1,9.3,29.8,12.8,14.7,4.7,29,7.1,42.8,7.1s14.5-.6,19.2-1.8c4.7-1.2,8.1-3,10.2-5.3,2.2-2.3,3.2-5.1,3.2-8.3,0-5.1-2.5-9.2-7.5-12.2-5-3-11.6-5.5-19.9-7.5-8.2-2-17.3-4.2-27.1-6.5-9.8-2.3-19.6-5.3-29.5-9.1-9.9-3.8-19-8.8-27.2-15-8.3-6.2-14.9-14.4-19.9-24.6-5-10.2-7.5-22.8-7.5-38s4.4-33.6,13.1-48.1c8.7-14.5,21.8-26.1,39.1-34.7,17.3-8.7,38.9-13,64.7-13s33.7,2,50.2,6.1c13.3,3.3,25.6,8,36.7,14.1,4.5,2.5,6.5,7.9,4.7,12.7l-18.4,50.1c-2.1,5.8-8.8,8.5-14.4,5.7-8.8-4.4-17.4-7.8-25.8-10.4-11.6-3.5-22.9-5.3-33.8-5.3s-14.6.8-19.4,2.4c-4.8,1.6-8.2,3.8-10.2,6.5-2,2.7-3,5.7-3,8.9,0,4.9,2.5,8.7,7.5,11.6,5,2.8,11.6,5.2,19.9,7.1,8.2,1.9,17.3,3.9,27.2,6.1,9.9,2.2,19.8,5.1,29.6,8.9,9.8,3.8,18.8,8.8,27,15,8.3,6.2,14.9,14.3,19.9,24.4,5,10,7.5,22.5,7.5,37.3s-4.4,33.2-13.1,47.7ZM1159.2,374.6c17.1,0,33.2-6.7,45.1-18.5,3.5-3.5,9.2-3.7,13.1-.7l50.8,39.5c4.6,3.6,5.2,10.3,1.3,14.7-28.1,31.4-67.8,49.2-110.3,49.2-93.8,0-167.5-87.4-144.1-185,12.8-53.1,54.4-95,107.6-107.6,56-13.3,111.1,4.8,147.1,45.2,3.9,4.4,3.3,11.1-1.3,14.7l-51,39.3c-4,3.1-9.6,2.6-13.3-.9-17.2-17-42.7-23.3-67.9-14.6-17.6,6.1-31.5,20.1-37.6,37.7-15.6,45,17.6,87.1,60.4,87.1ZM1584.8,354.9h-.2v93.7c0,5.8-4.7,10.5-10.5,10.5h-67c-5.8,0-10.5-4.7-10.5-10.5v-93.7h-90.7v93.7c0,5.8-4.7,10.5-10.5,10.5h-67c-5.8,0-10.5-4.7-10.5-10.5V172.3c0-5.8,4.7-10.5,10.5-10.5h67c5.8,0,10.5,4.7,10.5,10.5v94.6h90.7v-94.6c0-5.8,4.7-10.5,10.5-10.5h67c5.8,0,10.5,4.7,10.5,10.5v94.6h.2v87.9Z"/>
  <path class="st4" d="M1584.8,266.9v87.9h-.2v93.7c0,5.8-4.7,10.5-10.5,10.5h-67c-5.8,0-10.5-4.7-10.5-10.5v-93.7h-90.7v93.7c0,5.8-4.7,10.5-10.5,10.5h-67c-5.8,0-10.5-4.7-10.5-10.5V172.3c0-5.8,4.7-10.5,10.5-10.5h67c5.8,0,10.5,4.7,10.5,10.5v94.6h90.7v-94.6c0-5.8,4.7-10.5,10.5-10.5h67c5.8,0,10.5,4.7,10.5,10.5v94.6h.2Z"/>
  <path class="st1" d="M1269.6,409.6c-28.1,31.4-67.8,49.2-110.3,49.2-93.8,0-167.5-87.4-144.1-185,12.8-53.1,54.4-95,107.6-107.6,56-13.3,111.1,4.8,147.1,45.2,3.9,4.4,3.3,11.1-1.3,14.7l-51,39.3c-4,3.1-9.6,2.6-13.3-.9-17.2-17-42.7-23.3-67.9-14.6-17.6,6.1-31.5,20.1-37.6,37.7-15.6,45,17.6,87.1,60.4,87.1s33.2-6.7,45.1-18.5c3.5-3.5,9.2-3.7,13.1-.7l50.8,39.5c4.6,3.6,5.2,10.3,1.3,14.7Z"/>
  <path class="st0" d="M974.1,363.2c0,17.3-4.4,33.2-13.1,47.7-8.7,14.5-21.7,26.1-38.9,34.9-17.2,8.8-38.8,13.2-64.9,13.2s-41.3-2.7-60.9-8.1c-15.8-4.4-29.3-9.8-40.7-16.3-4.5-2.6-6.5-8-4.6-12.9l19.6-50.4c2.3-5.8,9.2-8.4,14.6-5.3,9.2,5.1,19.1,9.3,29.8,12.8,14.7,4.7,29,7.1,42.8,7.1s14.5-.6,19.2-1.8c4.7-1.2,8.1-3,10.2-5.3,2.2-2.3,3.2-5.1,3.2-8.3,0-5.1-2.5-9.2-7.5-12.2-5-3-11.6-5.5-19.9-7.5-8.2-2-17.3-4.2-27.1-6.5-9.8-2.3-19.6-5.3-29.5-9.1-9.9-3.8-19-8.8-27.2-15-8.3-6.2-14.9-14.4-19.9-24.6-5-10.2-7.5-22.8-7.5-38s4.4-33.6,13.1-48.1c8.7-14.5,21.8-26.1,39.1-34.7,17.3-8.7,38.9-13,64.7-13s33.7,2,50.2,6.1c13.3,3.3,25.6,8,36.7,14.1,4.5,2.5,6.5,7.9,4.7,12.7l-18.4,50.1c-2.1,5.8-8.8,8.5-14.4,5.7-8.8-4.4-17.4-7.8-25.8-10.4-11.6-3.5-22.9-5.3-33.8-5.3s-14.6.8-19.4,2.4c-4.8,1.6-8.2,3.8-10.2,6.5-2,2.7-3,5.7-3,8.9,0,4.9,2.5,8.7,7.5,11.6,5,2.8,11.6,5.2,19.9,7.1,8.2,1.9,17.3,3.9,27.2,6.1,9.9,2.2,19.8,5.1,29.6,8.9,9.8,3.8,18.8,8.8,27,15,8.3,6.2,14.9,14.3,19.9,24.4,5,10,7.5,22.5,7.5,37.3Z"/>
  <path class="st2" d="M686.4,172.3v276.3c0,5.8-4.7,10.5-10.4,10.5h-67c-5.8,0-10.5-4.7-10.5-10.5V172.3c0-5.8,4.7-10.4,10.5-10.4h67c5.8,0,10.4,4.7,10.4,10.4Z"/>
  <path class="st3" d="M532.4,172.3v55.1c0,5.8-4.7,10.4-10.4,10.4h-101.5v49.2h89.4c5.8,0,10.4,4.7,10.4,10.4v53.3c0,5.8-4.7,10.4-10.4,10.4h-89.4v87.1c0,5.8-4.7,10.4-10.4,10.4h-67c-5.8,0-10.4-4.7-10.4-10.4V172.3c0-5.8,4.7-10.4,10.4-10.4h178.9c5.8,0,10.4,4.7,10.4,10.4Z"/>
</svg>