<?xml version="1.0" encoding="UTF-8"?>
<svg id="Layer_1" xmlns="http://www.w3.org/2000/svg" version="1.1" viewBox="0 0 1111.5 620.9">
  <!-- Generator: Adobe Illustrator 30.2.1, SVG Export Plug-In . SVG Version: 2.1.1 Build 1)  -->
  <defs>
    <style>
      .st0 {
        fill: #fff;
      }
    </style>
  </defs>
  <polygon class="st0" points="594 350.6 564.6 395 535.6 351.4 535.4 418.1 513.1 418.1 513 314.6 537.6 314.4 564.9 358.2 592.2 314.4 616.8 314.6 616.8 418.1 594.2 418.1 594 350.6"/>
  <path class="st0" d="M813.4,418c-16.2,4.1-32.7-.3-45.9-10.4l9.4-14.6c5.9,3.5,11.3,6.7,18,8.4s16.1,2.1,16.7-4.7c.2-1.9-1.6-4.9-3.8-5.6l-16.3-5.4c-6.1-2-12.2-4.7-16.1-10-5-6.7-5.2-15.7-1.6-23.8s10-11.7,18.3-13.4c13.1-2.6,26.3.8,38,8.3l-8.6,15.4c-8.6-4.5-17.7-9-26.2-6.5-1.7.5-3.4,2.8-3.5,4.2-1,12.2,41.6,7.1,40.1,35.9s-7.2,19.5-18.4,22.3Z"/>
  <rect class="st0" x="729.8" y="310" width="22.5" height="108.1"/>
  <rect class="st0" x="685.1" y="310" width="22.5" height="108.1"/>
  <g>
    <rect class="st0" x="640.4" y="338.7" width="22.5" height="79.4"/>
    <rect class="st0" x="639.8" y="310" width="23.7" height="20"/>
  </g>
  <path class="st0" d="M585.1,250.4l.2-15.2h-23s0-19.6,0-19.6h45c0,0,0,44.8,0,44.8-16.8,14.6-39.7,20.1-61.2,14.3-21.6-5.8-35.6-24.1-37.5-45.8-2.9-33.1,22.5-60,55.8-59.1,14.4.4,28.4,4,39,14.5l-14.2,17c-10.4-8.9-23.6-13.2-36.5-8.7-14,4.9-21.4,19.3-20.3,33.8s7.9,23.6,19.9,27.9c10.8,3.9,22.3,2.2,32.8-3.8Z"/>
  <path class="st0" d="M665.1,194.4c-15.2-.8-29.2,6.2-36.6,19.8-7.3,13.3-7.5,29.7,0,43.1,7,12.5,20,19.1,34.1,19.7,13.3.5,25.7-3.8,34.3-14.7l-12.9-11.4c-7.3,7.2-16.4,9.9-26.1,7.1-6.9-2-11.2-7.7-12.4-14.5h55.1c2.5-24.1-9.4-47.6-35.5-49ZM645.3,229.2c.5-4.9,2.5-9.3,6-12.6,4.8-4.5,11.9-5.4,17.9-2.7,5.6,2.5,9.2,8.9,9.6,15.4h-33.4Z"/>
  <path class="st0" d="M847.4,194.3c-15.1-.5-28.9,6.8-36,20.4-6.9,13.2-7.1,29.3.2,42.5,6.9,12.5,20,19.1,34.1,19.7,13.4.6,26.2-4.1,34.3-14.8l-12.7-11.2c-7.6,7.2-17.8,10.4-28,6.4-6-2.4-9.5-7.7-10.7-13.9h55.1c2.6-24.5-9.7-48.1-36.3-49ZM828.5,229.2c.6-4.9,2.5-9.2,6-12.6,4.8-4.5,11.9-5.4,17.9-2.8,5.7,2.5,9.3,8.9,9.6,15.4h-33.4Z"/>
  <path class="st0" d="M1027.4,227.9c0-14.8-6.8-27.9-22.1-31.4-14.8-3.4-30.5-1.5-44,4.9l5.6,17.1c8.7-3.4,17.3-5,26.5-4,8.2.9,13.6,7.7,12.1,15.4-11.6-3.8-23.6-4.4-34.8-.8-10.2,3.3-16.1,11.7-16.4,22.2-.3,11.7,6.6,21.5,18.7,24.3,11.9,2.7,24.1.4,32.3-8.8l.5,8.4h21.5c0-.1,0-47.3,0-47.3ZM997.3,259.4c-5.4,2.1-11.3,2.4-16.2,0-4-1.9-5.4-5.9-4.9-9.8,1.4-12,21.1-10.6,29.5-6.7,1.6,6.9-1.4,13.7-8.4,16.4Z"/>
  <path class="st0" d="M754.9,214.7c-8-.3-14.5,5.2-14.5,13.3l-.2,47.1h-22.5c0,0,0-79.3,0-79.3h22.4s.4,11.1.4,11.1c9.5-14.3,29.2-17.1,41.8-5.7,5.4,4.9,8.1,12.9,8.1,20.2v53.6c.1,0-22.3,0-22.3,0l-.2-47.4c0-7.4-5.5-12.8-12.8-13Z"/>
  <path class="st0" d="M923.4,275.1h-22.5c0,.1,0-79.3,0-79.3h22.5c0,.1.2,15.5.2,15.5,4.7-10.7,13.2-18,25.1-16.7v23.2c-7.9.2-14.6,1.8-19.3,7.6-3.7,4.6-5.9,11-5.9,17l-.2,32.7Z"/>
  <rect class="st0" x="1047.9" y="167.1" width="22.5" height="108.1"/>
  <path class="st0" d="M438.4,359.6l-9.3-44.8c-9.6-52.5-.6-95.1,17.3-144.5h-73.3c-2.2,8.6-4.6,15.8-8,23.3-9.5,19.1-26,30.7-47.3,35.9l11-31.5c7.2-20.7,8.2-42.8,3.1-64.1-6.2-26.3-23.9-47.2-48.7-57.4-14.5-6-29.1-8-44.9-7.7-30.5.7-58.3,15.6-76.1,40.3-11.8,16.3-18.3,35-20.2,55.1-3.3,36,9.8,70.4,36,95.1,13.2,12.8,28.5,22.1,45.5,29.7l-13.9,36.1c-16.7-1.5-32.9-1.6-49.6.6-40.4,5.6-76.8,23.7-99,58.7-24.7,39.1-24.5,90.8-3,131.6,31.7,60.1,97.6,89.6,163.4,93.2l9.8.5c6.1.3,12.3.3,18.4,0l9.8-.5c43.7-2.4,87.2-15.5,122.1-42.4,29-22.3,49.3-53,58.7-88.3,10.7-40.2,6.6-79-1.7-119ZM219.3,201.1c-10-15.5-11-34.8-1.2-50.8,5.6-9.2,15.8-13.4,26.3-11.1,21.6,4.6,23.4,30.8,16.9,48.2l-14.8,39.1c-12.3-5.1-20.4-14.7-27.3-25.3ZM364.4,462.2c-12.8,40.6-47.5,65.3-88.6,72.2-42.2,7.2-97,2.1-130.9-26.8-17.8-15.1-28.3-36.8-27.7-60.3.2-8.8,3.8-16.7,9.1-24.1,13.4-18.8,35-29.3,58.4-28.9l-32,86.1h71.9c0,0,27.6-74.2,27.6-74.2,17.2,6.3,31.8,17.2,45.8,30.4l25.3-63.3c-6.5-6.6-13.5-11.4-21.2-16.3l-26.6-13.5,16.8-45.5c19.9-2.1,39.1-6.8,58.4-14.1.4,16.5,1.4,32.2,4.4,48.4l8.5,45.5c6,30.4,10.4,54.3.9,84.6Z"/>
  <path class="st0" d="M485.6,43.2c6.5,42.4-46.2,77.1-75.6,100.4-27.3-21.5-70.1-49.9-75.8-86.6-2.7-17.1,5.4-33.2,20.8-40.8,19.7-10.2,45.4-2.7,54.9,18.2,6.1-12.8,18.6-21.6,33.3-22.6,20.3-1.4,38.5,11.6,42.4,31.5Z"/>
</svg>