<?xml version="1.0" encoding="UTF-8"?>
<svg id="Layer_1" xmlns="http://www.w3.org/2000/svg" version="1.1" viewBox="0 0 1111.5 620.9">
  <!-- Generator: Adobe Illustrator 30.2.1, SVG Export Plug-In . SVG Version: 2.1.1 Build 1)  -->
  <defs>
    <style>
      .st0 {
        fill: #fff;
      }
    </style>
  </defs>
  <path class="st0" d="M1100,315.2c0,11.8-9.6,21.4-21.5,21.4s-21.5-9.6-21.5-21.4,9.6-21.4,21.5-21.4,21.5,9.6,21.5,21.4Z"/>
  <ellipse class="st0" cx="1038.9" cy="354.6" rx="16.5" ry="16.4"/>
  <path class="st0" d="M1055.4,275.7c0,9.1-7.4,16.4-16.5,16.4s-16.5-7.3-16.5-16.4,7.4-16.4,16.5-16.4,16.5,7.4,16.5,16.4Z"/>
  <ellipse class="st0" cx="999.4" cy="315.3" rx="12.7" ry="12.6"/>
  <path class="st0" d="M1012.2,236.3c0,7-5.7,12.6-12.7,12.6s-12.7-5.7-12.7-12.6,5.7-12.6,12.7-12.6,12.7,5.6,12.7,12.6Z"/>
  <path class="st0" d="M1012.1,394.2c0,7-5.7,12.6-12.7,12.6s-12.7-5.6-12.7-12.6,5.7-12.6,12.7-12.6,12.7,5.7,12.7,12.6Z"/>
  <ellipse class="st0" cx="959.8" cy="275.8" rx="9.8" ry="9.7"/>
  <ellipse class="st0" cx="959.8" cy="354.7" rx="9.8" ry="9.7"/>
  <path class="st0" d="M927.7,315.3c0,4.1-3.3,7.4-7.4,7.4s-7.4-3.3-7.4-7.4,3.3-7.4,7.4-7.4,7.4,3.3,7.4,7.4Z"/>
  <path class="st0" d="M829.9,353.2l-3.9,18.9c-4.8-1.7-9-2.9-13.9-2.4-4.9.5-11.1,6-11.1,12.5l-.2,52.1h-.1l-22.5.3v-67c-.1,0-1.5-15-1.5-15h18.1l2.2,11.4c5.9-13.4,19.5-17.6,32.9-10.8Z"/>
  <rect class="st0" x="489" y="352.5" width="22.6" height="82"/>
  <path class="st0" d="M90.9,326.9v107.5h-23.1v-44.4h-32.9v44.5c-8.7,0-15.9.2-23.2-.5h0v-107.2h23.2v42.9h33v-42.8h23.1Z"/>
  <path class="st0" d="M446.6,434.4v-55.7c0-3.4-1.9-8-4.5-9.7-4.3-2.7-9.2-2-13.4.6-4.2,2.5-6.2,6.1-6.2,10.8v54h-22.6v-107.5h22.4l.3,31c10.9-9.4,26-10.8,37.4-2.7,5.7,4,8.9,12,8.9,19.1l.2,60h-22.5Z"/>
  <path class="st0" d="M512.6,328.1c-.5,5.1-4.6,9.6-10.4,10.3-5.8.7-10.2-1.3-12.6-5.5-2.3-4.2-1.8-9.8,1.3-13.3,3.2-3.7,8.5-5.1,13.8-3.4h0c5.6,1.8,8.4,6.8,7.9,11.9Z"/>
  <path class="st0" d="M261.5,417.5v-61.4c-26.1-9.7-59-10.6-69.8,20.5-4,13.2-4.2,27.3,0,40.5,3.7,11.6,13.1,18.7,25,19.6,10.2.8,19.5-2.2,25.6-10.9l1.9,8.8,18.9-.2c-.4-6.2-1.5-11.2-1.5-16.9ZM238.9,409.3c0,7.3-7.4,10.9-13.1,11-6.5,0-11.5-4.1-13.2-10.9-2.8-11.5-3.2-36.5,10.2-41.7,5.3-2,10.8-1.2,16.3.6l-.2,40.9Z"/>
  <path class="st0" d="M600.7,375.6v58.9h-22.4v-55.8c-.1-3.5-1.9-8-4.5-9.8-2.6-1.8-8.9-1.8-12.8.5-3.9,2.2-6.8,5.6-6.8,10.5v54.4c0,0-22.7-.2-22.7-.2v-67.7c-.1,0-1.3-14-1.3-14l18.5-.2,1.8,10.4c8.7-15.4,35.8-17.1,45-3.6,3.1,4.6,5.2,10.7,5.2,16.5Z"/>
  <path class="st0" d="M676.5,413h0c-7.5,4.9-14.1,6.9-21.9,6.6-9-.3-16-7-16.7-15.9,20.4-.9,44.9-6.5,44.3-31.1-.3-11.8-8.1-20.1-19.6-22-19-3.1-36.9,6.1-43.9,24.4-7.1,18.8-5.6,48.5,16,58.2,13.7,6.2,36.5,4.1,48.4-5.8l-6.5-14.6ZM642.6,371.2c4-4.6,10.9-7,16.4-3.8,2.9,1.8,3.6,5.9,2.9,9-2,9.1-16.3,11.5-25,11.5-.2-6.1,1.7-11.9,5.8-16.7h-.1Z"/>
  <path class="st0" d="M755,413c-7.5,4.8-14,6.8-21.8,6.6-9.1-.2-16.2-7.1-16.8-15.9,20.5-.9,44.8-6.5,44.1-31.1-.3-11.8-8.1-20-19.6-22-19-3.2-36.9,6-43.9,24.3-7.1,18.8-5.7,48.6,16.1,58.3,13.7,6.1,36.4,4.1,48.3-5.8l-6.5-14.6ZM715.4,387.8c0-6,1.7-11.5,5.5-16.2h.1c3.8-4.8,10.8-7.4,16.2-4.5,3.1,1.6,4,5.3,3.5,8.5-1.5,9.9-16.8,12.3-25.3,12.2Z"/>
  <path class="st0" d="M170.2,413h0c-7.5,4.8-14,6.8-21.8,6.6-9-.2-16.1-7-16.7-15.9,20.4-.9,44.9-6.5,44.2-31.1-.4-11.8-8.1-20-19.6-22-19.3-3.2-37.3,6.3-44.1,25-6.8,18.9-5.2,48.1,16.3,57.6,13.7,6.1,36.4,4.1,48.3-5.8l-6.5-14.6ZM130.6,387.8c0-6.4,1.8-12.4,6.2-17.1,4-4.3,10.8-6.4,15.9-3.3,2.9,1.8,3.6,5.8,2.9,8.9-2,9.3-17.1,11.6-25.1,11.5Z"/>
  <path class="st0" d="M382.7,431.6c-9.8,6.2-30.6,7.7-39.1,0-3.8-3.5-6-9.4-6-14.8l-.2-46.4-12.4-.2v-17.3c0,0,12.5-.2,12.5-.2v-25.3l22.4-.2.2,25.5h21.1v17.6l-21.3.3v40.5c.1,2.9,2.1,7.1,4.8,7.9,4.4,1.1,7.4,0,13.1-1.8v-.2l4.9,14.7Z"/>
  <path class="st0" d="M886.7,431.1h.2c-13,8.6-37.3,6.9-50.7-1.2l6.7-15.2c8.3,4.3,30.6,11.1,32.3-1.4.6-4.2-1.8-7.9-6.3-9.3l-16.6-4.9c-9.3-2.7-14.9-10.2-15.9-19.4-1.3-12.1,4.8-22.7,16.4-27.1,12.9-4.8,27.1-3.1,39.1,4.4l-6.7,15.6c-6-3.8-11.7-6.8-18.5-6.4-4.2.3-8,2.4-8.6,6.1-.6,3.7,1.2,8,5.3,9.3l18.8,6c10.1,3.2,15.5,11.8,15.3,22.1-.2,8.7-3.4,16.5-10.7,21.4Z"/>
  <path class="st0" d="M327.2,431.5c-9.9,6.3-31.7,8-39.9-.9-3.4-3.7-5.3-9.5-5.3-15v-88.5l22.4-.2v83.2c0,2.6,1.7,6.8,3.7,7.8,4.5,2.1,7.6.8,14-1.4h0c0,0,5.1,14.8,5.1,14.8Z"/>
  <polygon class="st0" points="617.5 277.7 592.7 277.8 592.6 211 565.1 278.5 548.7 278.6 521.7 211 521.7 277.6 503.2 277.8 503.2 184 537.2 184 560.8 244 585.2 184.1 617.4 184 617.5 277.7"/>
  <polygon class="st0" points="808.6 184 808.6 277.7 779 277.8 745.8 213.8 745.9 277.8 727.4 277.8 727.4 184.1 757.8 184 790 246.6 790.1 184.1 808.6 184"/>
  <polygon class="st0" points="486 277.8 417.5 277.8 417.6 184 484.7 184 484.9 200.9 442.9 201 442.9 222.1 479.3 222.2 479.5 237.5 442.9 237.6 442.9 259.8 485.9 259.9 486 277.8"/>
  <polygon class="st0" points="710.1 277.8 641.6 277.8 641.6 184 708.8 184 709 200.9 666.9 201 666.9 222.1 703.4 222.2 703.6 237.5 667 237.6 667 259.8 710 259.9 710.1 277.8"/>
  <path class="st0" d="M897.6,252c-2.5,32-47.2,30-70.2,24.3v-18.3c9.5,3,42.5,9.9,44.7-2.5.6-3.4-1-7.3-4.5-8.9l-19.6-8.9c-5.6-2.5-11.2-5.2-15.7-9.6-9.3-9.3-9.3-25.3-.4-34.9,13.8-14.8,40.1-10.8,58.3-7.5v17.5c-9.3-4-39.6-9.8-40.1,3.2-.5,13,2.4,5.8,5.9,7.3,9.7,4.5,19.1,8.7,28.3,13.9,9.2,5.2,14.1,14,13.3,24.3Z"/>
  <path class="st0" d="M351.6,256.8c-1.5,6.8-6.6,13.7-14.2,17.4h0c-16.5,8.2-36.9,6-55.3,2.1v-18.3c9.8,3.1,42.4,9.9,44.6-2.6,2.2-12.5-1.4-7.5-5-9.1l-23.1-10.5c-5.1-2.3-10.3-5.4-13.7-10-7-9.4-6.6-23.4,1.3-32.1,13.8-15.3,40.2-11.2,58.7-7.9v17.6c-9-3.9-38.4-9.5-40,2.3-.5,3.6,1.5,6.2,4.7,7.6l22.3,10.5c15,7.1,23.2,16.2,19.6,32.9Z"/>
  <rect class="st0" x="367.2" y="184" width="26.3" height="93.8"/>
</svg>