<?xml version="1.0" encoding="UTF-8"?>
<svg id="Layer_1" xmlns="http://www.w3.org/2000/svg" version="1.1" viewBox="0 0 1111.5 620.9">
  <!-- Generator: Adobe Illustrator 30.2.1, SVG Export Plug-In . SVG Version: 2.1.1 Build 1)  -->
  <defs>
    <style>
      .st0 {
        fill: #fff;
      }
    </style>
  </defs>
  <path class="st0" d="M173.3,477.1l-10.7.2c19.5-33.5,28.5-70.4,34-108.4,3.5-25.2,5.9-49.8,6-75.2l.2-66.5H18.5c27.8-49.4,78.2-81.6,134.1-85.6,3.3-.2,6.2.6,9.3-.5,2.3,0,4.7.2,7,.2l8.9.2c38.9,1,76.1,18.6,103.8,45.8l6.4,6.3c66.8,65.9,60.8,176.2-8.3,239.5-27.3,25-62.4,42.2-100.2,43.7l-6.2.2Z"/>
  <g>
    <path class="st0" d="M107.6,467.3c5.7-14.3,9.8-28.5,12.9-43.5,6.9-34.9,8.9-74.5,8.4-110l-.3-21.5H-2c1.3-14.1,4.5-27,9.1-40.4h171.1c.4,8.2.3,16.2.1,24.6-.7,47.5-4.1,99.6-18.2,145.2-5.9,18.8-13.7,36.2-24.9,52.9-9.3-1.5-18.1-4-27.6-7.3Z"/>
    <path class="st0" d="M93.8,431.5c-2.3,8.7-4.7,16.6-8.5,25.6C33.9,429.5-.3,375.8-2.7,317h107c0,19.9-.4,38.8-2,58.2-1.4,19.2-4,37.7-8.6,56.3Z"/>
  </g>
  <polygon class="st0" points="749.5 232.3 734.8 232.5 734.8 162.2 709.6 162.1 709.5 149.2 774.6 149.2 774.7 162.1 749.5 162.1 749.5 232.3"/>
  <g>
    <polygon class="st0" points="846.5 196.6 804.9 196.6 804.9 219.6 847.3 219.7 847.4 232.5 790.2 232.5 790.2 149.2 847.4 149.2 847.4 162.1 804.9 162.1 804.9 183.7 846.5 183.7 846.5 196.6"/>
    <g>
      <path class="st0" d="M925.2,213.8v-13s-24.8,0-24.8,0v-13c0,0,39.4,0,39.4,0v31.2c-10.3,11.9-26.1,17-41.7,14.7-21-2.9-36-19.8-36.5-41-.3-11.8,3.2-23.1,11.4-31.7,17.6-18.3,51.5-18.2,66,4.3l-12,6.7c-6.3-8.4-15.9-12.3-26-10.8-10.4,1.5-18.8,8.3-22.3,18.2s-2.7,15.9.1,23.6c4.2,11.1,14.5,18.2,26.5,18.2s13.9-2.6,19.8-7.3Z"/>
      <path class="st0" d="M1007.5,203.6c5.7,14.4,21.7,21.1,35.7,15.4,5.1-2,8.7-5.6,11.6-10l12.4,6.3c-6.7,11.7-18.8,18.5-32.4,18.8-25.7.6-44.9-17.4-44.9-43.1,0-25.7,19.2-43.7,44.9-43.1,13.6.3,25.4,6.9,32.4,18.8l-12.5,6.4c-4.2-6.6-10.4-10.7-18-11.8-12.6-1.8-24.5,5.2-29.3,17-3.3,8.1-3.4,17,0,25.4Z"/>
      <rect class="st0" x="958.3" y="149.2" width="14.6" height="83.3"/>
    </g>
  </g>
  <path class="st0" d="M598.4,199.9c12.1-2.1,19.8-12.1,19.6-24,.6-14.4-9.5-25.3-23.9-26.6h-40c0,0,0,83.1,0,83.1h14.7c0,0,0-31,0-31h14.4c0,0,18.6,31.3,18.6,31.3l16.7-.3-20.2-32.5ZM568.8,188.5v-26.3s21.4,0,21.4,0c7.2,0,12.4,5.7,12.8,12.3.4,6.9-4.3,13.4-12,13.8-7.5.4-14.7.2-22.2.2Z"/>
  <path class="st0" d="M678.1,149.2h-18.3s-32.7,83.2-32.7,83.2h16c0,0,6.2-15.9,6.2-15.9h39.4c0,0,6.1,16,6.1,16l16-.2-32.7-83.1ZM653.4,203.6l15.6-41.8,15.6,41.8h-31.1Z"/>
  <path class="st0" d="M447,231.5c-16.1,5.5-38.2,2.3-49.8-10.8l8.1-11.2c8.4,8.7,20.1,13.1,32.2,10.9s7.5-2.7,9.6-5.9c2.9-4.7,1.2-10.1-3.7-12.5-12.1-6.1-33.6-6.1-40.7-18.6-6.3-11.2-1.9-24.8,9.2-31,14.4-8,37.2-5.2,49.6,7.1l-8.4,10.9c-8.1-8.9-31.1-14.2-37.1-3.6-2.5,4.4-.8,9.1,3.8,11.2,14.6,6.8,43.7,6,43.6,30.2,0,10.6-6,19.6-16.5,23.2Z"/>
  <polygon class="st0" points="513.4 232.5 498.6 232.4 498.6 162.1 473.5 162.1 473.5 149.2 538.6 149.2 538.6 162.1 513.4 162.1 513.4 232.5"/>
  <g>
    <polygon class="st0" points="1111.5 267.5 1111.5 350.9 1097.5 350.8 1054.2 290.6 1054 350.8 1039.4 350.8 1039.4 267.5 1054.5 267.5 1096.9 326.2 1097 267.5 1111.5 267.5"/>
    <path class="st0" d="M979.5,266c-23.9,0-43.3,19.4-43.3,43.2s19.4,43.2,43.3,43.2,43.3-19.4,43.3-43.2-19.4-43.2-43.3-43.2ZM1004.6,322.5c-4.1,10.4-13.6,16.9-25.2,16.8-11.2,0-20.5-6.1-24.7-16.1-3.7-8.7-3.7-18.4-.3-27.2,4.1-10.5,13.6-16.7,24.8-16.9,11.6-.2,21.5,6.3,25.6,17.1,3.2,8.4,3.2,17.8-.1,26.2Z"/>
  </g>
  <path class="st0" d="M793,267.5h-18.3l-32.8,83.3h16c0,0,6.3-15.9,6.3-15.9h39.4c0,0,6.1,16,6.1,16l16-.2-32.7-83.1ZM768.3,321.9l15.6-41.8,15.5,41.8h-31.1Z"/>
  <g>
    <path class="st0" d="M551.4,298.3c-2.9-12.3-11.1-21.9-22.6-27-5.8-2.2-11.6-3.8-18-3.8h-32.9c0,0,0,83.3,0,83.3h32.9c6.2,0,12-1.5,17.6-3.6,19.7-8.3,27.6-28.9,22.9-48.9ZM536.4,317.8c-3,11.5-12.6,19.2-24.3,19.9-6.5.4-12.9.2-19.5.1v-57.4c6.9,0,13.3-.2,19.9.2,11.1.7,20.3,7.8,23.5,18.3,1.9,6.1,2.1,12.3.4,18.9Z"/>
    <polygon class="st0" points="459 314.9 417.4 314.9 417.4 337.9 459.8 337.9 459.9 350.8 402.6 350.9 402.6 267.5 459.8 267.5 459.8 280.4 417.4 280.4 417.3 302 458.9 302 459 314.9"/>
  </g>
  <path class="st0" d="M642,267.5v52.7c0,4.2-1,8.3-2.3,12.2-7,20-31.3,23.1-48.5,17.9-14.1-4.3-21.3-16.9-21.3-31.2v-51.5s14.8,0,14.8,0l.2,52.5c0,6.6,3.4,13.1,9,16.2,7.3,4.1,16.6,4.2,24,.2s9.2-9.2,9.2-15.6l.3-53.3h14.7Z"/>
  <path class="st0" d="M676.8,322.3c4.8,11.4,15.8,17.9,27.8,16.9,8.3-.7,15-5.1,19.4-12l12.4,6.3c-7.4,12.9-20.7,19.2-35.1,18.9-23.5-.5-41.6-18-42.1-41.6-.6-26.8,19-45.7,45.5-44.6s24.9,7.1,31.8,18.8l-12.5,6.3c-4.9-7.7-12.6-12-21.6-12.1-11,0-20.7,6.2-25.2,16.3-3.7,8.5-4,18-.3,26.8Z"/>
  <polygon class="st0" points="864.4 350.6 849.7 350.8 849.7 280.5 824.5 280.4 824.4 267.5 889.6 267.5 889.6 280.4 864.4 280.4 864.4 350.6"/>
  <rect class="st0" x="905.1" y="267.5" width="14.7" height="83.4"/>
  <polygon class="st0" points="510.5 469.1 496.3 469.1 452.9 408.7 452.9 469.1 438.2 469.1 438.2 385.9 453.3 385.8 495.6 444.4 495.8 385.8 510.5 385.9 510.5 469.1"/>
  <path class="st0" d="M546.2,442.7c5.4,10.6,16.3,16,27.7,14.7s14.2-5.1,18.5-11.8l12.4,6.3c-7.1,12.2-19.6,18.9-33.7,18.8-26.9,0-45.5-20.4-43.4-47.3s11.4-30.5,27-36.2,20-3.7,29.9-.7c8.6,3,15.3,8.7,20.2,16.6l-12.5,6.4c-5-8-13.5-12.5-23-12.1-10.4.5-19.4,6.4-23.7,16s-4.2,19.9.5,29.2Z"/>
  <rect class="st0" x="402.6" y="385.8" width="14.7" height="83.4"/>
  <path class="st0" d="M636.4,384.4c-6.4,0-11.5,5.1-11.5,11.5s5.1,11.5,11.5,11.5,11.5-5.1,11.5-11.5-5.1-11.5-11.5-11.5ZM636.4,405.3c-5.2,0-9.5-4.2-9.5-9.5s4.2-9.5,9.5-9.5,9.5,4.2,9.5,9.5-4.2,9.5-9.5,9.5Z"/>
  <path class="st0" d="M641.7,392.9c.4-4.3-7.3-3.6-10.2-3.3v12.1c.5.3,2.4.5,2.6,0l.4-4.4c1,0,2.8.2,3.7.5,1.4.4,0,4.8,2.3,4.5,1.7-.3.9-4.4-.4-5.9.6-.9,1.5-2.4,1.6-3.4ZM639,393.9c-.5,1.8-4.1,1.6-4.6,1.1-.4-.5-.3-2.3,0-3.1.3-1,3.2-.6,4,0,.4.3.6,1.6.5,2Z"/>
</svg>